<svg xmlns="http://www.w3.org/2000/svg" width="380" height="90.615" viewBox="0 0 380 90.615">
  <path id="ananda-spa-logo-vector" d="M217.29,215.353a8.4,8.4,0,0,1,2.47,5.982,7.779,7.779,0,0,1-2.47,5.919,8.711,8.711,0,0,1-6.08,2.519,8.558,8.558,0,0,1-8.487-8.5,8.725,8.725,0,0,1,2.533-6.045,8.466,8.466,0,0,1,5.953-2.456A8.772,8.772,0,0,1,217.29,215.353Zm-.633.63a7.429,7.429,0,0,0-5.447-2.2,7.251,7.251,0,0,0-5.257,2.2,7.473,7.473,0,0,0,5.257,12.846,7.747,7.747,0,0,0,5.447-2.267,7.109,7.109,0,0,0,2.153-5.227,7.771,7.771,0,0,0-2.153-5.353Zm-1.14,3.023a2.5,2.5,0,0,1-2.343,2.582l2.217,4.471h-1.647l-2.09-4.282h-2.28v4.282h-1.457V216.3h3.61c2.66,0,3.99.882,3.99,2.708Zm-6.143-1.7v3.526h1.837c1.963,0,2.787-.378,2.787-1.7s-.887-1.826-2.787-1.826ZM-61.06,210.567c.95-1.952,1.267-2.267,1.773-2.267s.76.315,1.71,2.141c1.14,2.267,13.173,26.511,17.8,35.516,2.787,5.227,5,6.234,6.65,6.549a13.077,13.077,0,0,0,3.1.378c.443,0,.76.063.76.378,0,.378-.7.441-1.583.441-1.2,0-6.9-.063-12.287-.252-1.52-.063-2.343-.063-2.343-.441,0-.252.253-.315.57-.378.443-.126.95-.63.507-1.574L-51.5,236.574a.8.8,0,0,0-.7-.378l-16.847-.189a.88.88,0,0,0-.76.441l-4.813,10.327a10.326,10.326,0,0,0-1.14,3.9c0,1.2,1.647,1.7,2.977,1.763h.76c.57,0,.76.126.76.378,0,.378-.507.441-1.2.441-1.9,0-5.257-.252-6.143-.252s-5.193.126-8.867.063c-1.013,0-1.457-.126-1.457-.5,0-.252.317-.378.7-.315.57,0,1.647-.063,2.28-.063,3.61-.315,5.193-2.519,6.65-5.416Zm7.853,23.488c.38,0,.38-.189.317-.441l-7.22-15.869c-.38-.882-.76-.882-1.2,0l-7.093,15.68c-.19.315,0,.441.253.441Zm29.45,13.728c.063,3.589.633,4.723,2.217,5.1a22.887,22.887,0,0,0,2.913.315c.317,0,.443.126.443.252,0,.252-.38.378-1.077.315-3.357-.063-5.7-.189-6.207-.189s-2.977.126-5.637.063c-.57,0-.95-.063-.95-.378,0-.189.19-.252.443-.252a10.07,10.07,0,0,0,2.407-.252c1.457-.315,1.773-1.574,1.837-5.541l.38-25.125c0-1.7.19-2.2.7-2.2.443,0,1.457,1.008,2.027,1.448.887.756,9.563,7.934,18.493,15.3,5.763,4.723,12.1,10.138,14,11.65l-.253-22.292c0-2.834-.443-3.841-2.217-4.219a21.773,21.773,0,0,0-2.85-.252c-.443,0-.443-.126-.443-.315,0-.252.507-.315,1.2-.315,2.66.063,5.447.189,6.143.189.633,0,2.6-.126,5-.063.633,0,1.077.063,1.077.315,0,.189-.253.315-.633.315a5.224,5.224,0,0,0-1.393.126c-1.963.315-2.217,1.259-2.217,3.9L11.2,251.372c-.063,2.9-.127,3.086-.57,3.086s-1.14-.5-4.243-2.834c-.633-.441-9.057-6.99-15.2-12.09-6.777-5.542-13.3-11.209-15.2-12.783ZM36.22,222.468c.7-1.448.95-1.7,1.33-1.7s.57.252,1.267,1.574c.887,1.7,9.88,19.9,13.363,26.637,2.09,3.9,3.737,4.66,5,4.912a14.959,14.959,0,0,0,2.343.315c.38,0,.57.063.57.252,0,.252-.507.378-1.2.315-.887,0-5.193-.063-9.247-.189-1.14-.063-1.773-.063-1.773-.315,0-.189.19-.252.443-.315.38-.063.7-.5.38-1.2l-5.32-10.831a.466.466,0,0,0-.507-.252L30.2,241.486a.594.594,0,0,0-.57.315l-3.61,7.745a7.684,7.684,0,0,0-.887,2.96c0,.882,1.2,1.259,2.217,1.322h.57c.38,0,.57.126.57.252,0,.252-.38.378-.887.315-1.393,0-3.927-.189-4.56-.189s-3.863.063-6.65.063q-1.14,0-1.14-.378c0-.189.253-.252.507-.252.443,0,1.2-.063,1.71-.063,2.723-.252,3.927-1.889,5-4.093Zm5.89,17.569c.317,0,.317-.126.253-.315l-5.447-11.9c-.317-.63-.57-.693-.887,0L30.71,239.6c-.127.189,0,.315.19.315Zm25.143,8.879c.063,3.589.633,4.723,2.217,5.1a22.892,22.892,0,0,0,2.913.315c.317,0,.443.063.443.252,0,.252-.38.378-1.077.315-3.357-.063-5.7-.189-6.207-.189s-2.977.126-5.637.063c-.57,0-.95-.063-.95-.378,0-.189.19-.252.507-.252a10.071,10.071,0,0,0,2.407-.252c1.457-.315,1.773-1.574,1.837-5.541l.38-25.125c0-1.7.19-2.2.7-2.2.443,0,1.457,1.008,2.027,1.448.887.756,9.563,7.934,18.493,15.3,5.763,4.723,12.1,10.138,14,11.65l-.38-22.292c0-2.834-.443-3.841-2.217-4.219a21.78,21.78,0,0,0-2.913-.252c-.38,0-.443-.126-.443-.315,0-.252.443-.315,1.2-.315,2.66.063,5.447.189,6.143.189s2.6-.126,5-.063c.633,0,1.077.063,1.077.315,0,.189-.253.315-.633.315a5.222,5.222,0,0,0-1.393.126c-1.963.315-2.217,1.259-2.217,3.9l-.443,25.692c-.063,2.9-.19,3.086-.57,3.086-.443,0-1.14-.5-4.243-2.834-.633-.441-8.993-6.99-15.2-12.09-6.777-5.541-13.3-11.209-15.2-12.783Zm51.363-13.791c.063-6.864.127-8.06,0-9.446-.127-1.511-.57-2.2-2.47-2.519a20.137,20.137,0,0,0-2.027-.189c-.253,0-.443-.126-.443-.252,0-.252.317-.315.95-.315,2.66.063,6.333.189,6.65.189.7,0,4.433-.063,7.917,0,5.827.063,16.593-.189,23.5,5.29a13.93,13.93,0,0,1,5.573,11.209,15.7,15.7,0,0,1-6.523,12.279c-2.533,1.952-7.853,4.975-17.86,4.849-5.067-.063-12.477-.693-13.047-.693-.317,0-3.99.063-5.763.063q-.95,0-.95-.378c0-.126.127-.252.443-.252a16.788,16.788,0,0,0,1.773-.126c1.2-.189,1.52-1.133,1.71-2.393a79.571,79.571,0,0,0,.38-9.509Zm4.877,4.786c-.063,4.66-.063,8.69,0,9.509a6.834,6.834,0,0,0,.633,3.337c.76.819,3.04,1.763,10.007,1.889a23.68,23.68,0,0,0,14.06-3.9c3.1-2.2,4.813-6.36,4.813-10.453a14.021,14.021,0,0,0-5.51-11.146c-5.447-4.408-12.16-5.1-19.19-5.164a19.279,19.279,0,0,0-3.8.252c-.507.189-.7.378-.7.882-.063,1.511-.127,5.982-.19,9.32Zm61.18-26.259c.95-1.952,1.267-2.267,1.773-2.267.443,0,.76.315,1.71,2.141,1.14,2.267,13.173,26.511,17.86,35.516,2.723,5.227,5,6.234,6.65,6.549a13.075,13.075,0,0,0,3.1.378c.443,0,.76.063.76.378,0,.378-.7.441-1.583.441-1.2,0-6.9-.063-12.287-.252-1.52-.063-2.343-.063-2.343-.441,0-.252.253-.315.57-.378.443-.126.95-.63.507-1.574L194.3,239.66a.8.8,0,0,0-.7-.378l-16.847-.189a.879.879,0,0,0-.76.441l-4.813,10.327a9.3,9.3,0,0,0-1.14,3.9c0,1.2,1.647,1.7,2.977,1.763h.76c.57,0,.76.126.76.378,0,.378-.507.441-1.2.441-1.9,0-5.257-.252-6.143-.252s-5.193.126-8.867.063c-1.013,0-1.52-.126-1.52-.5,0-.252.317-.315.7-.315.57,0,1.647,0,2.28-.063,3.61-.315,5.193-2.519,6.65-5.415Zm7.853,23.488c.38,0,.38-.189.317-.378l-7.22-15.869c-.38-.882-.76-.882-1.2,0l-7.093,15.68c-.19.315,0,.441.253.441Zm-243.39,34.508a31.87,31.87,0,0,0,.063,3.778c.063.5.19.882.76,1.008a4.515,4.515,0,0,0,.887.063c.127,0,.127.063.127.126s-.127.126-.317.126c-1.077,0-2.343-.063-2.407-.063a18.352,18.352,0,0,1-1.9,0c-.19,0-.317-.063-.317-.126a.136.136,0,0,1,.127-.126,1.763,1.763,0,0,0,.57-.063c.38-.063.507-.441.57-.945a29.617,29.617,0,0,0,.127-3.778l.063-3.086a30.416,30.416,0,0,0,0-3.778c0-.567-.19-.882-.633-1.008a1.963,1.963,0,0,0-.633-.063.136.136,0,0,1-.127-.126c0-.126.127-.126.317-.126.633,0,1.9.063,1.963.063a18.541,18.541,0,0,1,1.9,0c.19,0,.317.063.317.126s-.063.126-.19.126a1.4,1.4,0,0,0-.507.063c-.507.063-.7.378-.76,1.008-.063.567-.063,1.071-.063,3.778Zm9.437,2.834c0,1.448.19,1.889.76,2.078a4.911,4.911,0,0,0,.95.126c.127,0,.127.063.127.126,0,.126-.127.126-.38.126-1.14,0-1.9-.063-2.09-.063a17.673,17.673,0,0,1-1.9,0c-.19,0-.317,0-.317-.126,0-.063.063-.126.19-.126a3.629,3.629,0,0,0,.823-.063c.507-.126.57-.63.633-2.2l.127-10.075c0-.693.063-.882.253-.882s.507.378.7.567l6.143,6.108c1.9,1.889,4.053,4.03,4.623,4.66l-.127-8.942c0-1.133-.127-1.511-.76-1.637-.317-.063-.633-.063-.95-.126-.127,0-.19-.063-.19-.126,0-.126.19-.126.38-.126.887,0,1.837.063,2.027.063h1.647c.19,0,.38,0,.38.126s-.063.126-.19.126a.943.943,0,0,0-.443.063c-.633.126-.76.5-.76,1.511l-.19,10.264c0,1.133-.063,1.259-.19,1.259s-.38-.189-1.393-1.133c-.19-.189-2.977-2.771-5.067-4.786-2.217-2.2-4.433-4.471-5.067-5.1Zm32.553-2.33a31.871,31.871,0,0,0,.063,3.778c.063.5.19.882.76,1.008.253,0,.7.063.887.063.127,0,.127.063.127.126s-.127.126-.317.126c-1.077,0-2.343-.063-2.407-.063a18.37,18.37,0,0,1-1.9,0c-.19,0-.317-.063-.317-.126s.063-.126.19-.126a1.763,1.763,0,0,0,.57-.063c.38-.063.507-.441.57-.945a29.617,29.617,0,0,0,.127-3.778l.063-7.431H-13.37c-1.2,0-1.71.126-2.027.567a5.8,5.8,0,0,0-.317.5q-.1.189-.19.189a.136.136,0,0,1-.127-.126c0-.189.443-1.7.443-1.826.063-.126.127-.315.19-.315a2.032,2.032,0,0,0,.887.189c.57.063,1.33.126,1.52.126l7.347.063c.633,0,1.267-.063,1.963-.126.127,0,.127.126.063.189,0,.5-.063,1.7-.063,1.952,0,.189-.063.252-.127.252-.127,0-.127-.063-.127-.315v-.189c-.063-.5-.507-.945-2.407-1.008l-2.47-.063Zm23.18.315a33.45,33.45,0,0,0,.063,3.841c.063.5.19.882.76.944a4.2,4.2,0,0,0,.887.063c.127,0,.127.063.127.126,0,.126-.127.126-.317.126-1.077,0-2.343-.063-2.407-.063-.127,0-1.33.063-1.9.063-.19,0-.317-.063-.317-.126s.063-.126.19-.126a1.762,1.762,0,0,0,.57-.063c.38-.063.507-.441.57-.944a25.124,25.124,0,0,0,.127-3.778V270.7a.136.136,0,0,0-.127-.126h0l-8.3-.126c-.063,0-.127,0-.127.063V272.4a31.869,31.869,0,0,0,.063,3.778c.063.5.19.882.76,1.007a4.208,4.208,0,0,0,.887.063c.127,0,.127.063.127.126,0,.126-.127.126-.317.126-1.077,0-2.28-.063-2.407-.063a18.523,18.523,0,0,1-1.9,0c-.19,0-.317-.063-.317-.126s.063-.126.19-.126a1.764,1.764,0,0,0,.57-.063c.38-.063.507-.441.57-.945a25.121,25.121,0,0,0,.127-3.778l.063-3.086c0-2.771.063-3.211,0-3.778a.877.877,0,0,0-.823-1.008,2.167,2.167,0,0,0-.633-.063c-.063,0-.19,0-.127-.126,0-.126.127-.126.317-.126.887,0,2.09.063,2.217.063a18.531,18.531,0,0,1,1.9,0c.19,0,.317.063.317.126a.136.136,0,0,1-.127.126,1.4,1.4,0,0,0-.507.063c-.507.063-.7.378-.76,1.008-.063.567-.063,1.07-.063,3.778v.378a.136.136,0,0,0,.127.126l8.3.126c.063,0,.127,0,.127-.063h0v-.378a30.411,30.411,0,0,0,0-3.778c0-.63-.19-.882-.823-1.007a2.387,2.387,0,0,0-.7-.063.136.136,0,0,1-.127-.126c0-.126.127-.126.317-.126.887,0,2.09.063,2.217.063s1.33-.063,1.9-.063c.19,0,.317.063.317.126s-.063.126-.19.126a1.4,1.4,0,0,0-.507.063c-.507.063-.7.378-.76,1.007-.063.567-.063,1.071-.063,3.778Zm8.93-2.96a30.414,30.414,0,0,0,0-3.778.877.877,0,0,0-.823-1.008,2.167,2.167,0,0,0-.633-.063.136.136,0,0,1-.127-.126c0-.126.127-.126.317-.126.887,0,2.09.063,2.217.063s4.053.063,4.5.063c.253,0,.57-.063.823-.063.127,0,.19-.063.253-.063s.063.063.063.189-.127.315-.19.819a6.9,6.9,0,0,1-.127,1.133c0,.063-.063.189-.127.189-.127,0-.127-.063-.127-.252a2.226,2.226,0,0,0-.127-.63c-.127-.315-.317-.5-1.393-.63-.317-.063-2.47-.063-2.66-.063-.063,0-.127.063-.127.189l-.063,4.849c0,.126,0,.189.127.189.253,0,2.66.063,3.1,0s.76-.063.95-.252c.127-.126.19-.252.317-.252a.136.136,0,0,1,.127.126,6.784,6.784,0,0,0-.19,1.008,8.031,8.031,0,0,0-.063,1.133c0,.126,0,.315-.127.315a.136.136,0,0,1-.127-.126h0a1.734,1.734,0,0,0-.063-.567c-.063-.252-.253-.567-1.013-.63-.507-.063-2.47-.126-2.787-.126a.136.136,0,0,0-.127.126h0v1.511c0,.63-.063,2.645-.063,3.023.063,1.2.317,1.448,2.28,1.448a4.9,4.9,0,0,0,1.9-.189c.507-.189.76-.5.887-1.259.063-.189.063-.252.19-.252s.127.126.127.252a15.733,15.733,0,0,1-.253,1.7c-.127.441-.317.441-1.077.441-2.977-.063-4.243-.189-4.813-.189-.127,0-1.33.063-1.9.063-.19,0-.317-.063-.317-.126s.063-.126.19-.126a1.764,1.764,0,0,0,.57-.063c.38-.063.507-.441.57-.945a30.2,30.2,0,0,0,.127-3.841Zm34.073,3.463a31.866,31.866,0,0,0,.063,3.778c.063.5.19.882.76,1.008.253,0,.7.063.887.063.127,0,.127.063.127.126s-.127.126-.317.126c-1.077,0-2.343-.063-2.407-.063-.127,0-1.33.063-1.9.063-.19,0-.317-.063-.317-.126a.136.136,0,0,1,.127-.126,1.762,1.762,0,0,0,.57-.063c.38-.063.507-.441.57-.945a29.62,29.62,0,0,0,.127-3.778v-1.826a.136.136,0,0,0-.127-.126h0l-8.3-.126c-.063,0-.127,0-.127.126v1.826a37.6,37.6,0,0,0,.063,3.778c.063.5.19.882.76,1.008a4.208,4.208,0,0,0,.887.063c.127,0,.127.063.127.126,0,.126-.127.126-.317.126-1.077,0-2.343-.063-2.407-.063-.127,0-1.33.063-1.9.063-.19,0-.317-.063-.317-.126s.063-.126.19-.126a1.764,1.764,0,0,0,.57-.063c.38-.063.507-.441.57-.945a25.121,25.121,0,0,0,.127-3.778l.063-3.086a30.41,30.41,0,0,0,0-3.778.877.877,0,0,0-.823-1.008,2.389,2.389,0,0,0-.7-.063.136.136,0,0,1-.127-.126c0-.126.127-.126.317-.126.887,0,2.09.063,2.217.063a18.541,18.541,0,0,1,1.9,0c.19,0,.317.063.317.126a.136.136,0,0,1-.127.126,1.4,1.4,0,0,0-.507.063c-.507.063-.7.378-.76,1.008-.063.567-.063,1.071-.063,3.778v.378a.136.136,0,0,0,.127.126l8.3.126c.063,0,.127,0,.127-.126v-.378a30.813,30.813,0,0,0,0-3.778c-.063-.63-.19-.882-.823-1.008a2.612,2.612,0,0,0-.7-.063c-.063,0-.127,0-.127-.126s.063-.126.317-.126c.887,0,2.09.063,2.217.063a18.531,18.531,0,0,1,1.9,0c.19,0,.317.063.317.126s-.063.126-.19.126a1.4,1.4,0,0,0-.507.063c-.507.063-.7.378-.76,1.008-.063.567-.063,1.071-.063,3.778Zm10.577.189a37.6,37.6,0,0,0,.063,3.778c.063.5.19.882.76,1.008a4.2,4.2,0,0,0,.887.063c.127,0,.127.063.127.126s-.127.126-.317.126c-1.077,0-2.343-.063-2.407-.063s-1.33.063-1.9.063c-.19,0-.317-.063-.317-.126a.136.136,0,0,1,.127-.126,1.762,1.762,0,0,0,.57-.063c.38-.063.507-.441.57-.945a25.68,25.68,0,0,0,.127-3.841l.063-3.086a30.413,30.413,0,0,0,0-3.778c-.063-.63-.253-.882-.633-1.008a1.963,1.963,0,0,0-.633-.063.136.136,0,0,1-.127-.126c0-.126.127-.126.317-.126.633,0,1.9.063,1.963.063h1.9c.19,0,.317.063.317.126a.136.136,0,0,1-.127.126,1.4,1.4,0,0,0-.507.063c-.507.063-.7.378-.76,1.008-.063.567-.063,1.071-.063,3.778Zm23.5,3.086c.063.63.19,1.637,1.013,1.889a4.415,4.415,0,0,0,1.267.189c.127,0,.127,0,.127.063,0,.126-.19.189-.38.126-.443,0-2.533-.063-3.293-.126-.443-.063-.57-.126-.57-.189a.136.136,0,0,1,.127-.126c.063,0,.127-.315.063-.63l-.823-9.068H88.85l-4.877,9.068c-.443.756-.507.945-.633.945s-.253-.189-.633-.819c-.507-.882-2.153-3.9-2.217-4.093-.19-.315-2.343-4.6-2.533-5.038h-.063l-.887,8.123v.882a.671.671,0,0,0,.507.567c.253.063.507.063.76.126.063,0,.127,0,.127.063,0,.126-.127.126-.38.126-.7,0-1.647-.063-1.837-.063a14.05,14.05,0,0,1-1.647,0c-.19,0-.317-.063-.317-.189,0-.063.127-.063.19-.063a1.762,1.762,0,0,0,.57-.063c.633-.126.7-.756.823-1.448l1.583-11.4c.063-.189.127-.315.19-.315.127,0,.19.063.317.252L83.72,276.12l5.89-10.957c.063-.126.127-.252.317-.252.127,0,.19.126.253.5Zm11.337-10.453c.253-.567.317-.693.443-.693s.19.063.443.63c.317.693,3.293,7.934,4.433,10.642.7,1.574,1.267,1.889,1.647,1.952a3.2,3.2,0,0,0,.76.126c.127,0,.19,0,.19.126s-.19.126-.38.126c-.317,0-1.71,0-3.1-.063-.38,0-.57,0-.57-.126a.136.136,0,0,1,.127-.126c.127,0,.253-.189.127-.441l-1.773-4.345c0-.063-.127-.126-.19-.126l-4.243-.063c-.063,0-.19.063-.19.126l-1.2,3.086a3.708,3.708,0,0,0-.317,1.2c0,.378.38.5.76.5h.19c.127,0,.19.063.19.126,0,.126-.127.126-.317.126-.443,0-1.33-.063-1.52-.063H96.007c-.253,0-.38-.063-.38-.126s.063-.126.19-.063a1.761,1.761,0,0,0,.57-.063c.887-.063,1.33-.756,1.647-1.637Zm1.963,7.116c.127,0,.127-.063.063-.126L102.973,268c-.127-.252-.19-.252-.317,0l-1.773,4.723c-.063.063,0,.126.063.126Zm12.413.882c-.063,2.582.063,3.715.38,4.03s.823.441,2.343.441a3.443,3.443,0,0,0,2.407-.5,2.114,2.114,0,0,0,.507-1.07c0-.126.063-.252.19-.252s.127.063.127.252a8.6,8.6,0,0,1-.317,1.763c-.127.378-.19.441-1.267.441-2.85,0-4.117-.126-5.257-.189a18.7,18.7,0,0,1-1.9,0c-.19,0-.317-.063-.317-.126s.063-.126.19-.126a1.764,1.764,0,0,0,.57-.063c.38-.063.507-.441.57-.945a25.118,25.118,0,0,0,.127-3.778l.063-3.086a30.407,30.407,0,0,0,0-3.778c-.063-.567-.19-.882-.823-1.008a2.166,2.166,0,0,0-.633-.063.136.136,0,0,1-.127-.126c0-.126.127-.126.317-.126.887,0,2.09.063,2.217.063s1.52-.063,2.09,0c.19,0,.317.063.317.126a.136.136,0,0,1-.127.126,2.165,2.165,0,0,0-.633.063c-.57.063-.76.378-.76,1.008-.063.567-.063,1.07-.063,3.778Zm15.01-7.62c.253-.567.317-.693.443-.693s.19.063.443.63c.317.693,3.293,7.934,4.433,10.642.7,1.574,1.267,1.889,1.647,1.952a3.2,3.2,0,0,0,.76.126c.127,0,.19,0,.19.126s-.19.126-.38.126c-.317,0-1.71,0-3.1-.063-.38,0-.57,0-.57-.126a.136.136,0,0,1,.127-.126.288.288,0,0,0,.127-.441l-1.773-4.345c0-.063-.063-.126-.19-.126l-4.243-.063c-.063,0-.19.063-.19.126l-1.2,3.086a3.71,3.71,0,0,0-.317,1.2c0,.315.38.5.76.5h.19c.127,0,.19.063.19.126,0,.126-.127.126-.317.126-.443,0-1.33-.063-1.52-.063s-1.267.063-2.217,0c-.253,0-.38-.063-.38-.126s.063-.126.19-.126h.57c.887-.126,1.267-.756,1.647-1.637Zm1.963,7.053c.127,0,.127-.063.063-.126l-1.773-4.723c-.127-.252-.19-.252-.317,0L130.27,273.1c-.063.063,0,.126.063.126Zm12.033,1.448a3.338,3.338,0,0,0-.443-1.889c-.127-.252-2.723-4.156-3.357-5.1a6.6,6.6,0,0,0-1.33-1.322,2.072,2.072,0,0,0-.823-.252c-.127,0-.19-.063-.19-.126s.063-.126.253-.126c.38,0,1.837.063,1.963.063a13.182,13.182,0,0,1,1.647,0c.19,0,.253.063.253.126s-.127.063-.317.189a.419.419,0,0,0-.253.315,1.316,1.316,0,0,0,.253.693c.317.5,3.167,5.038,3.547,5.6.38-.756,2.913-4.534,3.293-5.1a1.5,1.5,0,0,0,.317-.882c0-.252-.063-.441-.317-.5-.19-.063-.317-.063-.317-.189,0-.063.127-.126.317-.126.507,0,1.14.063,1.267.063s1.52-.063,1.9-.063c.127,0,.253.063.253.126s-.127.126-.253.126a1.46,1.46,0,0,0-.887.252,4.717,4.717,0,0,0-1.077.882,47.7,47.7,0,0,0-3.8,5.541,4.155,4.155,0,0,0-.317,1.763v1.511c0,.252,0,1.007.063,1.763.063.5.19.882.76,1.008a4.515,4.515,0,0,0,.887.063c.127,0,.19.063.19.126s-.127.126-.317.126c-1.077,0-2.343-.063-2.407-.063a19.435,19.435,0,0,1-1.963,0c-.19,0-.317-.063-.317-.126s.063-.126.19-.126a1.762,1.762,0,0,0,.57-.063c.38-.063.57-.441.633-.945.063-.756.063-1.448.063-1.763Zm14.63-8.123c.253-.567.317-.693.443-.693s.19.063.443.63c.253.693,3.293,7.934,4.433,10.642.7,1.574,1.267,1.826,1.647,1.952a3.2,3.2,0,0,0,.76.126c.127,0,.19,0,.19.126s-.19.126-.38.126c-.317,0-1.71,0-3.1-.063-.38,0-.57,0-.57-.126a.136.136,0,0,1,.127-.126c.127-.063.253-.189.127-.5l-1.773-4.345c-.063-.063-.127-.126-.19-.126l-4.243-.063c-.127,0-.127.063-.19.126l-1.2,3.086a3.807,3.807,0,0,0-.317,1.133c0,.378.443.5.76.5h.19c.127,0,.19.063.19.126,0,.126-.127.126-.317.126-.443,0-1.33-.063-1.52-.063s-1.267.063-2.217,0c-.253,0-.38-.063-.38-.126s.063-.126.19-.126h.57c.887-.063,1.33-.756,1.647-1.637ZM162.7,273.6c.127,0,.127-.063.063-.126l-1.837-4.786c-.063-.252-.19-.252-.317,0l-1.773,4.723c-.063.063,0,.126.063.126Zm9.69,5.667c-.253-.126-.253-.189-.253-.693,0-.882.127-1.574.127-1.889,0-.189.063-.252.127-.252.127,0,.127.063.127.189a2.13,2.13,0,0,0,.063.63c.253,1.322,1.583,1.826,2.85,1.826a2.416,2.416,0,0,0,2.787-2.141v-.126c0-1.2-.57-1.889-2.217-3.212l-.887-.63c-2.09-1.574-2.533-2.645-2.47-3.841,0-1.889,1.583-3.149,4.117-3.086a9.1,9.1,0,0,1,1.837.189c.253.063.443.063.7.126.19,0,.19.063.19.126s-.063.693-.127,1.826c0,.315-.063.378-.127.378-.127,0-.127-.063-.127-.252a2.325,2.325,0,0,0-.253-.882c-.127-.189-.633-.945-2.407-.945a2.094,2.094,0,0,0-2.407,1.826v.189c0,1.008.507,1.637,2.343,2.96l.57.378c2.28,1.637,2.85,2.771,2.787,4.156a3.617,3.617,0,0,1-1.71,2.9,5.469,5.469,0,0,1-2.977.693A4.777,4.777,0,0,1,172.387,279.268Zm12.92-5.289,34.01-2.645L253.2,274.8l-34.01,2.645Zm-155.673-56.8,8.17-.882,8.17,1.071-8.17.882ZM-126.8,270.012l34.01-2.645,33.947,3.463-34.01,2.645Zm68.59,15.806c.19-.441.253-.567.317-.567s.127.063.317.5c.253.5,2.6,6.3,3.547,8.438.57,1.259,1.013,1.448,1.33,1.574a1.962,1.962,0,0,0,.633.063c.063,0,.127,0,.127.063s-.127.126-.317.126c-.253,0-1.393,0-2.47-.063-.317,0-.443,0-.443-.063s.063-.063.127-.126c.127,0,.19-.126.127-.378l-1.393-3.463c0-.063-.063-.063-.127-.063h-3.357a.136.136,0,0,0-.127.126l-.95,2.456a5.223,5.223,0,0,0-.253.945c0,.252.317.378.57.378h.127c.127,0,.127,0,.127.063s-.063.126-.253.126c-.38,0-1.013-.063-1.2-.063H-63.53c-.19,0-.317-.063-.317-.126s.063-.063.127-.063h.443c.7-.063,1.013-.63,1.33-1.259Zm1.52,5.541c.063,0,.063-.063.063-.126l-1.457-3.778c-.063-.189-.127-.189-.253,0l-1.393,3.715c-.063.063,0,.126.063.126Zm21.47-1.574c0-2.141.063-2.582,0-3.023a.712.712,0,0,0-.633-.819c-.19,0-.38-.063-.507-.063a.221.221,0,0,1-.127-.063c0-.063.063-.126.253-.126.7,0,1.647.063,1.773.063h2.09c1.52,0,4.37-.063,6.207,1.637a4.735,4.735,0,0,1,1.457,3.589,5.318,5.318,0,0,1-1.71,3.9,6.279,6.279,0,0,1-4.75,1.511c-1.33,0-3.293-.189-3.42-.189a11.8,11.8,0,0,1-1.52,0c-.19,0-.253-.063-.253-.126s.063-.063.127-.063a1.084,1.084,0,0,0,.443-.063c.317-.063.38-.378.443-.756.063-.567.127-1.7.127-3.022Zm1.267,1.511v3.023a6.169,6.169,0,0,0,.127,1.07c.19.252.823.567,2.66.567a5.493,5.493,0,0,0,3.737-1.26,4.347,4.347,0,0,0,1.267-3.337,4.938,4.938,0,0,0-1.457-3.526,6.77,6.77,0,0,0-5.067-1.637,5.475,5.475,0,0,0-1.013.063c-.127,0-.19.126-.19.252,0,.5-.063,1.889-.063,2.96Zm17.543-1.259c0-2.141.063-2.582,0-3.023a.712.712,0,0,0-.633-.819,1.584,1.584,0,0,0-.507-.063.221.221,0,0,1-.127-.063c0-.063.063-.126.253-.126.7,0,1.647.063,1.773.063s3.23.063,3.547,0a2.614,2.614,0,0,0,.7-.063c.063,0,.127-.063.19-.063s.063.063.063.126c0,.126-.063.252-.127.63,0,.126-.063.756-.063.882a.136.136,0,0,1-.127.126c-.127,0-.127-.063-.127-.189a1.379,1.379,0,0,0-.063-.5c-.127-.252-.253-.378-1.077-.5-.253,0-1.963-.063-2.153-.063-.063,0-.063,0-.127.126l-.063,3.841c0,.126,0,.126.063.126h2.47a1.223,1.223,0,0,0,.76-.189c.127-.126.19-.189.253-.189s.063,0,.063.126-.063.315-.127.756a5.115,5.115,0,0,0-.063.882c0,.126,0,.252-.127.252a.136.136,0,0,1-.127-.126h0a1.066,1.066,0,0,0-.063-.441c-.063-.189-.19-.441-.823-.5-.443-.063-1.963-.063-2.217-.063-.063,0-.127,0-.127.063h0V292.3c0,.5-.063,2.078,0,2.393.063.945.253,1.133,1.773,1.133a4.151,4.151,0,0,0,1.52-.126c.38-.126.57-.441.7-1.007,0-.126.063-.189.127-.189s.063.126.063.189l-.19,1.322c-.127.378-.253.378-.823.378-2.343,0-3.42-.126-3.863-.126h-1.52c-.19,0-.253-.063-.253-.126s.063-.063.127-.063a1.083,1.083,0,0,0,.443-.063c.317-.063.38-.378.443-.756.063-1.008.127-2.015.127-3.023Zm13.047,6.423c-.19-.126-.253-.189-.253-.567a6.178,6.178,0,0,1,.127-1.448c0-.189.063-.252.127-.252a.136.136,0,0,1,.127.126,1.221,1.221,0,0,0,.063.5,2.144,2.144,0,0,0,2.28,1.448,1.989,1.989,0,0,0,2.217-1.7v-.126c0-.945-.443-1.511-1.773-2.519l-.7-.5c-1.647-1.2-2.027-2.078-1.963-3.023,0-1.511,1.267-2.519,3.23-2.456a5.78,5.78,0,0,1,1.457.189,1.764,1.764,0,0,0,.57.063c.127,0,.127.063.127.126a14.425,14.425,0,0,0-.063,1.448c0,.252-.063.315-.127.315s-.127-.063-.127-.189a1.264,1.264,0,0,0-.19-.693c-.063-.126-.507-.756-1.963-.756A1.662,1.662,0,0,0-2.1,287.9v.189c0,.819.443,1.259,1.837,2.393l.443.315C2.02,292.115,2.4,293,2.4,294.067a2.7,2.7,0,0,1-1.33,2.267,4.954,4.954,0,0,1-2.343.567A4.992,4.992,0,0,1-3.363,296.459ZM14.56,292.87c0,1.322,0,2.456.063,3.023.063.378.127.693.57.756a2.61,2.61,0,0,0,.7.063c.127,0,.127.063.127.063,0,.063-.063.126-.253.126-.887,0-1.837-.063-1.9-.063a11.8,11.8,0,0,1-1.52,0c-.19,0-.253-.063-.253-.126s0-.063.127-.063a1.084,1.084,0,0,0,.443-.063c.317-.063.38-.378.443-.756.063-1.008.127-2.015.127-3.023l.063-5.919H10.95c-.95,0-1.33.063-1.583.441a1.013,1.013,0,0,0-.253.441c-.063.126-.127.126-.19.126s-.063-.063-.063-.126a12.208,12.208,0,0,1,.38-1.448c0-.063.063-.252.127-.252.19.063.443.126.7.189a9.517,9.517,0,0,0,1.2.063l5.827.063c.507,0,.887-.063,1.077-.063a1.084,1.084,0,0,1,.443-.063c.063,0,.063.063.063.189,0,.441-.063,1.385-.063,1.511s-.063.189-.127.189-.127-.063-.127-.252v-.126c-.063-.441-.38-.756-1.9-.819l-1.963-.063ZM27.987,293c0,1.322,0,2.456.063,3.023.063.378.127.693.633.756.19,0,.57.063.7.063s.127.063.127.063c0,.063-.063.126-.253.126-.887,0-1.837-.063-1.9-.063s-1.077.063-1.52.063c-.19,0-.253-.063-.253-.126s.063-.063.127-.063a.944.944,0,0,0,.443-.063c.317-.063.38-.378.443-.756.063-1.008.127-2.015.127-3.023V290.54c0-2.141.063-2.582,0-3.023,0-.441-.19-.693-.507-.756a1.24,1.24,0,0,0-.507-.063.222.222,0,0,1-.127-.063c0-.063.063-.126.253-.126.507,0,1.52.063,1.583.063a11.8,11.8,0,0,1,1.52,0c.19,0,.253,0,.253.126,0,.063-.063.063-.127.063a.947.947,0,0,0-.38.063c-.443.063-.57.315-.57.819a24.619,24.619,0,0,0-.063,3.023Zm10.577,2.267c0,1.133.19,1.511.57,1.637a3.1,3.1,0,0,0,.76.063.221.221,0,0,1,.127.063c0,.063-.127.126-.253.126-.887,0-1.52-.063-1.647-.063a11.279,11.279,0,0,1-1.52,0c-.127,0-.253,0-.253-.126,0-.063.063-.063.127-.063a2.165,2.165,0,0,0,.633-.063c.38-.126.443-.5.507-1.763l.127-8c0-.5.063-.693.19-.693s.38.315.57.441l4.877,4.849c1.52,1.511,3.167,3.211,3.673,3.715l-.063-7.053c0-.882-.127-1.2-.57-1.322a3.1,3.1,0,0,0-.76-.063c-.127,0-.127-.063-.127-.126s.127-.126.317-.126c.7,0,1.457.063,1.647.063h1.33c.19,0,.253,0,.253.126,0,.063-.063.063-.19.063a.807.807,0,0,0-.38.063c-.507.063-.57.378-.57,1.259l-.127,8.186c0,.882-.063,1.008-.127,1.008-.127,0-.317-.189-1.14-.882-.19-.126-2.407-2.2-3.99-3.841-1.773-1.763-3.547-3.526-3.99-4.03Zm21.343-8c.19-.441.253-.5.38-.5s.127.063.317.5c.253.5,2.6,6.3,3.547,8.438.57,1.259,1.013,1.448,1.33,1.574a1.965,1.965,0,0,0,.633.063c.063,0,.127,0,.127.063s-.127.126-.317.126c-.253,0-1.393,0-2.47-.063-.317,0-.443,0-.443-.126,0-.063.063-.063.127-.126.127-.063.19-.126.127-.378l-1.393-3.463c0-.063-.063-.063-.127-.063l-3.357-.063a.136.136,0,0,0-.127.126l-.95,2.456a5.222,5.222,0,0,0-.253.945c0,.252.317.378.57.378h.127c.127,0,.127.063.127.063,0,.063-.063.126-.253.126-.38,0-1.013-.063-1.2-.063a15.7,15.7,0,0,1-1.773,0c-.19,0-.317-.063-.317-.126s.063-.063.127-.063H54.9c.7-.063,1.013-.567,1.33-1.259Zm1.52,5.6c.063,0,.063,0,.063-.126l-1.457-3.778c-.063-.189-.127-.189-.253,0l-1.393,3.715c0,.063,0,.126.063.126Zm13.933.756c0,1.322,0,2.456.063,3.023.063.441.127.693.57.756a2.613,2.613,0,0,0,.7.063.222.222,0,0,1,.127.063c0,.063-.063.126-.253.126-.823,0-1.837-.063-1.9-.063s-1.077.063-1.52.063c-.19,0-.253-.063-.253-.126s0-.063.127-.063a.944.944,0,0,0,.443-.063c.317-.063.38-.378.443-.756.063-1.008.127-2.015.127-3.023l.063-5.856h-2.28c-.95,0-1.33.063-1.583.441a1.014,1.014,0,0,0-.253.441c-.063.126-.127.126-.127.126a.219.219,0,0,1-.063-.126,12.21,12.21,0,0,1,.38-1.448c.063-.063.063-.252.127-.252.19.063.443.126.7.189a9.513,9.513,0,0,0,1.2.063l5.827.063A5.823,5.823,0,0,0,79.1,287.2a1.681,1.681,0,0,1,.443-.063c.063,0,.063.063.063.189,0,.441-.063,1.385-.063,1.511s-.063.189-.127.189-.127-.063-.127-.252v-.126c-.063-.441-.443-.756-1.9-.818l-1.963-.063Zm13.427.126a24.08,24.08,0,0,0,.063,3.023c.063.441.127.693.57.756a2.61,2.61,0,0,0,.7.063.222.222,0,0,1,.127.063c0,.063-.063.126-.253.126-.823,0-1.837-.063-1.9-.063a11.815,11.815,0,0,1-1.52,0c-.19,0-.253-.063-.253-.126s.063-.063.127-.063a.945.945,0,0,0,.443-.063c.317-.063.38-.378.443-.756.063-.567.127-1.7.127-3.023l.063-2.456V288.21a.741.741,0,0,0-.507-.819,1.4,1.4,0,0,0-.507-.063c-.063,0-.127,0-.127-.063s.063-.126.253-.126c.507,0,1.52.063,1.583.063h1.52c.19,0,.253,0,.253.126,0,.063-.063.063-.127.063a.808.808,0,0,0-.38.063c-.443.063-.57.315-.57.756a24.611,24.611,0,0,0-.063,3.023Zm14.25-6.486c3.483.063,6.08,2.078,6.017,5.29a5.8,5.8,0,0,1-5.953,5.667h-.317a5.521,5.521,0,0,1-5.953-5.038v-.5a5.729,5.729,0,0,1,6.08-5.353C102.91,287.266,102.973,287.266,103.037,287.266Zm.19,10.39c1.393,0,4.307-.693,4.37-4.723a4.735,4.735,0,0,0-4.243-5.164h-.443a4.29,4.29,0,0,0-4.623,3.778v.756a4.945,4.945,0,0,0,4.5,5.352Zm14.567-1.385c0,1.133.19,1.511.57,1.637a3.1,3.1,0,0,0,.76.063.222.222,0,0,1,.127.063c0,.063-.127.126-.317.126-.887,0-1.52-.063-1.647-.063a11.279,11.279,0,0,1-1.52,0c-.127,0-.253,0-.253-.126,0-.063.063-.063.127-.063a2.162,2.162,0,0,0,.633-.063c.38-.126.443-.5.507-1.763l.127-8c0-.567.063-.693.19-.693s.38.315.507.441l4.877,4.849c1.52,1.511,3.23,3.211,3.673,3.715l-.063-7.053c0-.881-.127-1.2-.57-1.322a3.1,3.1,0,0,0-.76-.063c-.127,0-.127-.063-.127-.126s.127-.126.317-.126c.7,0,1.457.063,1.647.063a8.785,8.785,0,0,1,1.33,0c.19,0,.253,0,.253.126,0,.063-.063.126-.19.126a.808.808,0,0,0-.38.063c-.507.063-.57.378-.57,1.2l-.127,8.186c0,.945-.063,1.008-.127,1.008-.127,0-.317-.126-1.14-.882-.19-.126-2.407-2.2-3.99-3.841-1.773-1.763-3.547-3.526-3.99-4.03Zm27.74,2.078c-.19-.126-.253-.189-.253-.567a6.175,6.175,0,0,1,.127-1.448c0-.126.063-.252.127-.252.127,0,.127.063.127.126a1.9,1.9,0,0,0,1.773,2.015,1.762,1.762,0,0,0,.57-.063,1.989,1.989,0,0,0,2.217-1.7v-.126c0-.945-.443-1.511-1.773-2.519l-.7-.5c-1.647-1.259-1.963-2.078-1.963-3.023,0-1.511,1.267-2.519,3.23-2.456a11.361,11.361,0,0,1,1.457.126,1.583,1.583,0,0,0,.507.063c.127,0,.19.063.19.126s-.063.567-.063,1.511c0,.252-.063.315-.127.315s-.127-.063-.127-.189a1.264,1.264,0,0,0-.19-.693c-.063-.126-.507-.756-1.963-.756a1.662,1.662,0,0,0-1.9,1.385v.189c0,.819.443,1.259,1.837,2.33l.443.315c1.837,1.322,2.217,2.2,2.217,3.337a2.85,2.85,0,0,1-1.33,2.267,4.954,4.954,0,0,1-2.343.567A5.608,5.608,0,0,1,145.533,298.349ZM160.1,292.24a19.479,19.479,0,0,0,0-3.023c0-.5-.127-.693-.633-.819-.19,0-.38-.063-.507-.063a.222.222,0,0,1-.127-.063c0-.063.063-.126.253-.126.7,0,1.647.063,1.773.063h1.963a4.065,4.065,0,0,1,2.913.819,2.345,2.345,0,0,1,.76,1.637,3.457,3.457,0,0,1-3.61,3.275h-.57c-.063,0-.19,0-.19-.126s.127-.126.443-.126a2.488,2.488,0,0,0,2.723-2.2v-.063a2.7,2.7,0,0,0-.823-2.141,2.879,2.879,0,0,0-2.153-.693,2.614,2.614,0,0,0-.7.063c-.127,0-.127.126-.127.252l-.063,5.73a24.078,24.078,0,0,0,.063,3.022c.063.378.127.693.57.756a3.123,3.123,0,0,0,.7.063.222.222,0,0,1,.127.063c0,.063-.063.126-.253.126-.887,0-1.837-.063-1.9-.063a11.649,11.649,0,0,1-1.52,0c-.19,0-.253-.063-.253-.126s.063-.063.127-.063a1.084,1.084,0,0,0,.443-.063c.317-.063.38-.378.443-.756.063-1.007.127-2.015.127-3.022Zm16.277-3.526c.19-.441.253-.567.38-.567s.127.063.317.5c.253.5,2.6,6.3,3.547,8.438.57,1.26,1.013,1.448,1.33,1.574a2.168,2.168,0,0,0,.633.063c.127,0,.19,0,.19.063s-.127.126-.317.126c-.253,0-1.393,0-2.47-.063-.317,0-.443,0-.443-.126,0-.063.063-.063.127-.126.063,0,.19-.126.127-.378l-1.393-3.464c0-.063-.063-.063-.127-.063l-3.357-.063a.136.136,0,0,0-.127.126l-.95,2.456a5.22,5.22,0,0,0-.253.945c0,.252.317.378.57.378h.19c.127,0,.127.063.127.063,0,.063-.127.126-.253.126-.38,0-1.013-.063-1.2-.063a15.7,15.7,0,0,1-1.773,0c-.19,0-.317-.063-.317-.126s.063-.063.127-.063a1.084,1.084,0,0,0,.443-.063c.7-.063,1.013-.567,1.33-1.26Zm1.52,5.6c.063,0,.063-.063.063-.126l-1.457-3.778c-.063-.189-.127-.189-.253,0l-1.393,3.715c0,.063,0,.126.063.126Z" transform="translate(126.8 -208.3)" fill="#74613c"/>
</svg>
