<svg xmlns="http://www.w3.org/2000/svg" xmlns:xlink="http://www.w3.org/1999/xlink" width="269" height="71" viewBox="0 0 269 71">
  <defs>
    <filter id="ananda-spa-logo-vector" x="0" y="0" width="269" height="71" filterUnits="userSpaceOnUse">
      <feOffset input="SourceAlpha"/>
      <feGaussianBlur stdDeviation="1.5" result="blur"/>
      <feFlood flood-color="#fff" flood-opacity="0.4"/>
      <feComposite operator="in" in2="blur"/>
      <feComposite in="SourceGraphic"/>
    </filter>
  </defs>
  <g transform="matrix(1, 0, 0, 1, 0, 0)" filter="url(#ananda-spa-logo-vector)">
    <path id="ananda-spa-logo-vector-2" data-name="ananda-spa-logo-vector" d="M108.63,213.126a5.751,5.751,0,0,1,1.69,4.093,5.322,5.322,0,0,1-1.69,4.05,5.96,5.96,0,0,1-4.16,1.723,5.855,5.855,0,0,1-5.807-5.817,5.97,5.97,0,0,1,1.733-4.136,5.792,5.792,0,0,1,4.073-1.68A6,6,0,0,1,108.63,213.126Zm-.433.431a5.083,5.083,0,0,0-3.727-1.508,4.961,4.961,0,0,0-3.6,1.508,5.113,5.113,0,0,0,3.6,8.789,5.3,5.3,0,0,0,3.727-1.551,4.864,4.864,0,0,0,1.473-3.576,5.317,5.317,0,0,0-1.473-3.662Zm-.78,2.068a1.714,1.714,0,0,1-1.6,1.767l1.517,3.059H106.2l-1.43-2.93h-1.56v2.93h-1v-6.678h2.47c1.82,0,2.73.6,2.73,1.853Zm-4.2-1.163v2.413h1.257c1.343,0,1.907-.259,1.907-1.163s-.607-1.249-1.907-1.249Zm-185.033-4.61c.65-1.336.867-1.551,1.213-1.551s.52.215,1.17,1.465c.78,1.551,9.013,18.139,12.177,24.3,1.907,3.576,3.423,4.265,4.55,4.481a8.948,8.948,0,0,0,2.123.258c.3,0,.52.043.52.259,0,.259-.477.3-1.083.3-.823,0-4.723-.043-8.407-.172-1.04-.043-1.6-.043-1.6-.3,0-.172.173-.215.39-.258.3-.086.65-.431.347-1.077l-4.853-9.91a.544.544,0,0,0-.477-.258l-11.527-.129a.6.6,0,0,0-.52.3l-3.293,7.066a7.065,7.065,0,0,0-.78,2.671c0,.819,1.127,1.163,2.037,1.206h.52c.39,0,.52.086.52.258,0,.259-.347.3-.823.3-1.3,0-3.6-.172-4.2-.172s-3.553.086-6.067.043c-.693,0-1-.086-1-.345,0-.172.217-.259.477-.215.39,0,1.127-.043,1.56-.043,2.47-.215,3.553-1.723,4.55-3.705Zm5.373,16.071c.26,0,.26-.129.217-.3l-4.94-10.858c-.26-.6-.52-.6-.823,0l-4.853,10.728c-.13.215,0,.3.173.3Zm20.15,9.393c.043,2.456.433,3.231,1.517,3.49a15.657,15.657,0,0,0,1.993.215c.217,0,.3.086.3.172,0,.172-.26.259-.737.215-2.3-.043-3.9-.129-4.247-.129s-2.037.086-3.857.043c-.39,0-.65-.043-.65-.259,0-.129.13-.172.3-.172a6.89,6.89,0,0,0,1.647-.172c1-.215,1.213-1.077,1.257-3.792l.26-17.191c0-1.163.13-1.508.477-1.508.3,0,1,.689,1.387.991.607.517,6.543,5.429,12.653,10.47,3.943,3.231,8.277,6.937,9.577,7.971l-.173-15.252c0-1.939-.3-2.628-1.517-2.887a14.9,14.9,0,0,0-1.95-.172c-.3,0-.3-.086-.3-.215,0-.172.347-.215.823-.215,1.82.043,3.727.129,4.2.129.433,0,1.777-.086,3.423-.043.433,0,.737.043.737.215,0,.129-.173.215-.433.215a3.575,3.575,0,0,0-.953.086c-1.343.215-1.517.862-1.517,2.671l-.3,17.579c-.043,1.982-.087,2.111-.39,2.111s-.78-.345-2.9-1.939c-.433-.3-6.2-4.782-10.4-8.272-4.637-3.792-9.1-7.669-10.4-8.746Zm41.037-17.32c.477-.991.65-1.163.91-1.163s.39.172.867,1.077c.607,1.163,6.76,13.615,9.143,18.225,1.43,2.671,2.557,3.188,3.423,3.361a10.235,10.235,0,0,0,1.6.215c.26,0,.39.043.39.172,0,.172-.347.259-.823.215-.607,0-3.553-.043-6.327-.129-.78-.043-1.213-.043-1.213-.215,0-.129.13-.172.3-.215.26-.043.477-.345.26-.819l-3.64-7.411a.319.319,0,0,0-.347-.172l-8.667-.129a.407.407,0,0,0-.39.215l-2.47,5.3a5.258,5.258,0,0,0-.607,2.025c0,.6.823.862,1.517.9h.39c.26,0,.39.086.39.172,0,.172-.26.259-.607.215-.953,0-2.687-.129-3.12-.129s-2.643.043-4.55.043q-.78,0-.78-.259c0-.129.173-.172.347-.172.3,0,.823-.043,1.17-.043,1.863-.172,2.687-1.293,3.423-2.8Zm4.03,12.021c.217,0,.217-.086.173-.215l-3.727-8.143c-.217-.431-.39-.474-.607,0l-3.64,8.057c-.087.129,0,.215.13.215Zm17.2,6.075c.043,2.456.433,3.231,1.517,3.49a15.665,15.665,0,0,0,1.993.215c.217,0,.3.043.3.172,0,.172-.26.258-.737.215-2.3-.043-3.9-.129-4.247-.129s-2.037.086-3.857.043c-.39,0-.65-.043-.65-.259,0-.129.13-.172.347-.172a6.891,6.891,0,0,0,1.647-.172c1-.215,1.213-1.077,1.257-3.792l.26-17.191c0-1.163.13-1.508.477-1.508.3,0,1,.689,1.387.991.607.517,6.543,5.429,12.653,10.47,3.943,3.231,8.277,6.937,9.577,7.971l-.26-15.252c0-1.939-.3-2.628-1.517-2.887a14.9,14.9,0,0,0-1.993-.172c-.26,0-.3-.086-.3-.215,0-.172.3-.215.823-.215,1.82.043,3.727.129,4.2.129s1.777-.086,3.423-.043c.433,0,.737.043.737.215,0,.129-.173.215-.433.215a3.574,3.574,0,0,0-.953.086c-1.343.215-1.517.862-1.517,2.671l-.3,17.579c-.043,1.982-.13,2.111-.39,2.111-.3,0-.78-.345-2.9-1.939-.433-.3-6.153-4.782-10.4-8.272-4.637-3.792-9.1-7.669-10.4-8.746Zm35.143-9.436c.043-4.7.087-5.515,0-6.463-.087-1.034-.39-1.508-1.69-1.723a13.784,13.784,0,0,0-1.387-.129c-.173,0-.3-.086-.3-.172,0-.172.217-.215.65-.215,1.82.043,4.333.129,4.55.129.477,0,3.033-.043,5.417,0,3.987.043,11.353-.129,16.077,3.619a9.531,9.531,0,0,1,3.813,7.669,10.744,10.744,0,0,1-4.463,8.4c-1.733,1.336-5.373,3.4-12.22,3.318-3.467-.043-8.537-.474-8.927-.474-.217,0-2.73.043-3.943.043q-.65,0-.65-.259c0-.086.087-.172.3-.172a11.487,11.487,0,0,0,1.213-.086c.823-.129,1.04-.776,1.17-1.637a54.444,54.444,0,0,0,.26-6.506Zm3.337,3.274c-.043,3.188-.043,5.946,0,6.506a4.676,4.676,0,0,0,.433,2.283c.52.56,2.08,1.206,6.847,1.293a16.2,16.2,0,0,0,9.62-2.671,8.827,8.827,0,0,0,3.293-7.152,9.593,9.593,0,0,0-3.77-7.626c-3.727-3.016-8.32-3.49-13.13-3.533a13.193,13.193,0,0,0-2.6.172c-.347.129-.477.258-.477.6-.043,1.034-.087,4.093-.13,6.377Zm41.86-17.967c.65-1.336.867-1.551,1.213-1.551.3,0,.52.215,1.17,1.465.78,1.551,9.013,18.139,12.22,24.3,1.863,3.576,3.423,4.265,4.55,4.481a8.947,8.947,0,0,0,2.123.258c.3,0,.52.043.52.258,0,.259-.477.3-1.083.3-.823,0-4.723-.043-8.407-.172-1.04-.043-1.6-.043-1.6-.3,0-.172.173-.215.39-.258.3-.086.65-.431.347-1.077l-4.853-9.91a.544.544,0,0,0-.477-.259L80.9,229.369a.6.6,0,0,0-.52.3l-3.293,7.066a6.364,6.364,0,0,0-.78,2.671c0,.819,1.127,1.163,2.037,1.206h.52c.39,0,.52.086.52.259,0,.258-.347.3-.823.3-1.3,0-3.6-.172-4.2-.172s-3.553.086-6.067.043c-.693,0-1.04-.086-1.04-.345,0-.172.217-.215.477-.215.39,0,1.127,0,1.56-.043,2.47-.215,3.553-1.723,4.55-3.705Zm5.373,16.071c.26,0,.26-.129.217-.259l-4.94-10.857c-.26-.6-.52-.6-.823,0l-4.853,10.728c-.13.215,0,.3.173.3Zm-166.53,23.611a21.806,21.806,0,0,0,.043,2.585c.043.345.13.6.52.689a3.089,3.089,0,0,0,.607.043c.087,0,.087.043.087.086s-.087.086-.217.086c-.737,0-1.6-.043-1.647-.043a12.559,12.559,0,0,1-1.3,0c-.13,0-.217-.043-.217-.086a.093.093,0,0,1,.087-.086,1.206,1.206,0,0,0,.39-.043c.26-.043.347-.3.39-.646a20.264,20.264,0,0,0,.087-2.585l.043-2.111a20.811,20.811,0,0,0,0-2.585c0-.388-.13-.6-.433-.689a1.343,1.343,0,0,0-.433-.043.093.093,0,0,1-.087-.086c0-.086.087-.086.217-.086.433,0,1.3.043,1.343.043a12.681,12.681,0,0,1,1.3,0c.13,0,.217.043.217.086s-.043.086-.13.086a.959.959,0,0,0-.347.043c-.347.043-.477.259-.52.689-.043.388-.043.732-.043,2.585Zm6.457,1.939c0,.991.13,1.293.52,1.422a3.36,3.36,0,0,0,.65.086c.087,0,.087.043.087.086,0,.086-.087.086-.26.086-.78,0-1.3-.043-1.43-.043a12.094,12.094,0,0,1-1.3,0c-.13,0-.217,0-.217-.086,0-.043.043-.086.13-.086a2.483,2.483,0,0,0,.563-.043c.347-.086.39-.431.433-1.508l.087-6.894c0-.474.043-.6.173-.6s.347.258.477.388l4.2,4.179c1.3,1.293,2.773,2.757,3.163,3.188l-.087-6.118c0-.776-.087-1.034-.52-1.12-.217-.043-.433-.043-.65-.086-.087,0-.13-.043-.13-.086,0-.086.13-.086.26-.086.607,0,1.257.043,1.387.043h1.127c.13,0,.26,0,.26.086s-.043.086-.13.086a.645.645,0,0,0-.3.043c-.433.086-.52.345-.52,1.034l-.13,7.023c0,.776-.043.862-.13.862s-.26-.129-.953-.776c-.13-.129-2.037-1.9-3.467-3.275-1.517-1.508-3.033-3.059-3.467-3.49Zm22.273-1.594a21.807,21.807,0,0,0,.043,2.585c.043.345.13.6.52.689.173,0,.477.043.607.043.087,0,.087.043.087.086s-.087.086-.217.086c-.737,0-1.6-.043-1.647-.043a12.568,12.568,0,0,1-1.3,0c-.13,0-.217-.043-.217-.086s.043-.086.13-.086a1.206,1.206,0,0,0,.39-.043c.26-.043.347-.3.39-.646a20.265,20.265,0,0,0,.087-2.585l.043-5.084H-49.19c-.823,0-1.17.086-1.387.388a3.968,3.968,0,0,0-.217.345q-.065.129-.13.129a.093.093,0,0,1-.087-.086c0-.129.3-1.163.3-1.249.043-.086.087-.215.13-.215a1.39,1.39,0,0,0,.607.129c.39.043.91.086,1.04.086l5.027.043c.433,0,.867-.043,1.343-.086.087,0,.087.086.043.129,0,.345-.043,1.163-.043,1.336,0,.129-.043.172-.087.172-.087,0-.087-.043-.087-.215v-.129c-.043-.345-.347-.646-1.647-.689l-1.69-.043Zm15.86.215a22.887,22.887,0,0,0,.043,2.628c.043.345.13.6.52.646a2.875,2.875,0,0,0,.607.043c.087,0,.087.043.087.086,0,.086-.087.086-.217.086-.737,0-1.6-.043-1.647-.043-.087,0-.91.043-1.3.043-.13,0-.217-.043-.217-.086s.043-.086.13-.086a1.205,1.205,0,0,0,.39-.043c.26-.043.347-.3.39-.646a17.19,17.19,0,0,0,.087-2.585V251a.093.093,0,0,0-.087-.086h0l-5.677-.086c-.043,0-.087,0-.087.043v1.293a21.805,21.805,0,0,0,.043,2.585c.043.345.13.6.52.689a2.879,2.879,0,0,0,.607.043c.087,0,.087.043.087.086,0,.086-.087.086-.217.086-.737,0-1.56-.043-1.647-.043a12.672,12.672,0,0,1-1.3,0c-.13,0-.217-.043-.217-.086s.043-.086.13-.086a1.207,1.207,0,0,0,.39-.043c.26-.043.347-.3.39-.646a17.188,17.188,0,0,0,.087-2.585l.043-2.111c0-1.9.043-2.2,0-2.585a.6.6,0,0,0-.563-.689,1.482,1.482,0,0,0-.433-.043c-.043,0-.13,0-.087-.086,0-.086.087-.086.217-.086.607,0,1.43.043,1.517.043a12.681,12.681,0,0,1,1.3,0c.13,0,.217.043.217.086a.093.093,0,0,1-.087.086.959.959,0,0,0-.347.043c-.347.043-.477.259-.52.689-.043.388-.043.732-.043,2.585v.259a.093.093,0,0,0,.087.086l5.677.086c.043,0,.087,0,.087-.043h0v-.259a20.807,20.807,0,0,0,0-2.585c0-.431-.13-.6-.563-.689a1.633,1.633,0,0,0-.477-.043.093.093,0,0,1-.087-.086c0-.086.087-.086.217-.086.607,0,1.43.043,1.517.043s.91-.043,1.3-.043c.13,0,.217.043.217.086s-.043.086-.13.086a.959.959,0,0,0-.347.043c-.347.043-.477.258-.52.689-.043.388-.043.732-.043,2.585Zm6.11-2.025a20.81,20.81,0,0,0,0-2.585.6.6,0,0,0-.563-.689,1.483,1.483,0,0,0-.433-.043.093.093,0,0,1-.087-.086c0-.086.087-.086.217-.086.607,0,1.43.043,1.517.043s2.773.043,3.077.043c.173,0,.39-.043.563-.043.087,0,.13-.043.173-.043s.043.043.043.129-.087.215-.13.56a4.722,4.722,0,0,1-.087.776c0,.043-.043.129-.087.129-.087,0-.087-.043-.087-.172a1.523,1.523,0,0,0-.087-.431c-.087-.215-.217-.345-.953-.431-.217-.043-1.69-.043-1.82-.043-.043,0-.087.043-.087.129l-.043,3.318c0,.086,0,.129.087.129.173,0,1.82.043,2.123,0s.52-.043.65-.172c.087-.086.13-.172.217-.172a.093.093,0,0,1,.087.086,4.641,4.641,0,0,0-.13.689,5.5,5.5,0,0,0-.043.776c0,.086,0,.215-.087.215a.093.093,0,0,1-.087-.086h0a1.186,1.186,0,0,0-.043-.388c-.043-.172-.173-.388-.693-.431-.347-.043-1.69-.086-1.907-.086a.093.093,0,0,0-.087.086h0v1.034c0,.431-.043,1.81-.043,2.068.043.819.217.991,1.56.991a3.35,3.35,0,0,0,1.3-.129c.347-.129.52-.345.607-.862.043-.129.043-.172.13-.172s.087.086.087.172a10.764,10.764,0,0,1-.173,1.163c-.087.3-.217.3-.737.3-2.037-.043-2.9-.129-3.293-.129-.087,0-.91.043-1.3.043-.13,0-.217-.043-.217-.086s.043-.086.13-.086a1.207,1.207,0,0,0,.39-.043c.26-.043.347-.3.39-.646a20.662,20.662,0,0,0,.087-2.628Zm23.313,2.37a21.8,21.8,0,0,0,.043,2.585c.043.345.13.6.52.689.173,0,.477.043.607.043.087,0,.087.043.087.086s-.087.086-.217.086c-.737,0-1.6-.043-1.647-.043-.087,0-.91.043-1.3.043-.13,0-.217-.043-.217-.086a.093.093,0,0,1,.087-.086,1.205,1.205,0,0,0,.39-.043c.26-.043.347-.3.39-.646A20.266,20.266,0,0,0-2,252.592v-1.25a.093.093,0,0,0-.087-.086h0l-5.677-.086c-.043,0-.087,0-.087.086v1.249a25.73,25.73,0,0,0,.043,2.585c.043.345.13.6.52.689a2.879,2.879,0,0,0,.607.043c.087,0,.087.043.087.086,0,.086-.087.086-.217.086-.737,0-1.6-.043-1.647-.043-.087,0-.91.043-1.3.043-.13,0-.217-.043-.217-.086s.043-.086.13-.086a1.207,1.207,0,0,0,.39-.043c.26-.043.347-.3.39-.646a17.188,17.188,0,0,0,.087-2.585l.043-2.111a20.807,20.807,0,0,0,0-2.585.6.6,0,0,0-.563-.689,1.635,1.635,0,0,0-.477-.043.093.093,0,0,1-.087-.086c0-.086.087-.086.217-.086.607,0,1.43.043,1.517.043a12.681,12.681,0,0,1,1.3,0c.13,0,.217.043.217.086a.093.093,0,0,1-.087.086.959.959,0,0,0-.347.043c-.347.043-.477.259-.52.689-.043.388-.043.732-.043,2.585v.259a.093.093,0,0,0,.087.086l5.677.086c.043,0,.087,0,.087-.086v-.259a21.084,21.084,0,0,0,0-2.585c-.043-.431-.13-.6-.563-.689A1.787,1.787,0,0,0-3,247.249c-.043,0-.087,0-.087-.086s.043-.086.217-.086c.607,0,1.43.043,1.517.043a12.681,12.681,0,0,1,1.3,0c.13,0,.217.043.217.086s-.043.086-.13.086a.959.959,0,0,0-.347.043c-.347.043-.477.258-.52.689-.043.388-.043.732-.043,2.585Zm7.237.129a25.73,25.73,0,0,0,.043,2.585c.043.345.13.6.52.689a2.875,2.875,0,0,0,.607.043c.087,0,.087.043.087.086s-.087.086-.217.086c-.737,0-1.6-.043-1.647-.043s-.91.043-1.3.043c-.13,0-.217-.043-.217-.086A.093.093,0,0,1,4.37,256a1.205,1.205,0,0,0,.39-.043c.26-.043.347-.3.39-.646a17.571,17.571,0,0,0,.087-2.628l.043-2.111a20.807,20.807,0,0,0,0-2.585c-.043-.431-.173-.6-.433-.689a1.343,1.343,0,0,0-.433-.043.093.093,0,0,1-.087-.086c0-.086.087-.086.217-.086.433,0,1.3.043,1.343.043h1.3c.13,0,.217.043.217.086a.093.093,0,0,1-.087.086.959.959,0,0,0-.347.043c-.347.043-.477.258-.52.689-.043.388-.043.732-.043,2.585Zm16.077,2.111c.043.431.13,1.12.693,1.293a3.02,3.02,0,0,0,.867.129c.087,0,.087,0,.087.043,0,.086-.13.129-.26.086-.3,0-1.733-.043-2.253-.086-.3-.043-.39-.086-.39-.129a.093.093,0,0,1,.087-.086c.043,0,.087-.215.043-.431l-.563-6.2H20.75l-3.337,6.2c-.3.517-.347.646-.433.646s-.173-.129-.433-.56c-.347-.6-1.473-2.671-1.517-2.8-.13-.215-1.6-3.145-1.733-3.447h-.043L12.647,255v.6a.459.459,0,0,0,.347.388c.173.043.347.043.52.086.043,0,.087,0,.087.043,0,.086-.087.086-.26.086-.477,0-1.127-.043-1.257-.043a9.617,9.617,0,0,1-1.127,0c-.13,0-.217-.043-.217-.129,0-.043.087-.043.13-.043a1.205,1.205,0,0,0,.39-.043c.433-.086.477-.517.563-.991l1.083-7.8c.043-.129.087-.215.13-.215.087,0,.13.043.217.172L17.24,254.7l4.03-7.5c.043-.086.087-.172.217-.172.087,0,.13.086.173.345Zm7.757-7.152c.173-.388.217-.474.3-.474s.13.043.3.431c.217.474,2.253,5.429,3.033,7.281.477,1.077.867,1.293,1.127,1.336a2.188,2.188,0,0,0,.52.086c.087,0,.13,0,.13.086s-.13.086-.26.086c-.217,0-1.17,0-2.123-.043-.26,0-.39,0-.39-.086a.093.093,0,0,1,.087-.086c.087,0,.173-.129.087-.3l-1.213-2.973c0-.043-.087-.086-.13-.086l-2.9-.043c-.043,0-.13.043-.13.086l-.823,2.111a2.537,2.537,0,0,0-.217.819c0,.258.26.345.52.345h.13c.087,0,.13.043.13.086,0,.086-.087.086-.217.086-.3,0-.91-.043-1.04-.043H25.647c-.173,0-.26-.043-.26-.086s.043-.086.13-.043a1.205,1.205,0,0,0,.39-.043c.607-.043.91-.517,1.127-1.12Zm1.343,4.869c.087,0,.087-.043.043-.086l-1.213-3.275c-.087-.172-.13-.172-.217,0l-1.213,3.231c-.043.043,0,.086.043.086Zm8.493.6c-.043,1.766.043,2.542.26,2.757s.563.3,1.6.3a2.356,2.356,0,0,0,1.647-.345,1.446,1.446,0,0,0,.347-.732c0-.086.043-.172.13-.172s.087.043.087.172a5.886,5.886,0,0,1-.217,1.206c-.087.259-.13.3-.867.3-1.95,0-2.817-.086-3.6-.129a12.8,12.8,0,0,1-1.3,0c-.13,0-.217-.043-.217-.086s.043-.086.13-.086a1.207,1.207,0,0,0,.39-.043c.26-.043.347-.3.39-.646a17.186,17.186,0,0,0,.087-2.585l.043-2.111a20.806,20.806,0,0,0,0-2.585c-.043-.388-.13-.6-.563-.689a1.482,1.482,0,0,0-.433-.043.093.093,0,0,1-.087-.086c0-.086.087-.086.217-.086.607,0,1.43.043,1.517.043s1.04-.043,1.43,0c.13,0,.217.043.217.086a.093.093,0,0,1-.087.086,1.481,1.481,0,0,0-.433.043c-.39.043-.52.258-.52.689-.043.388-.043.732-.043,2.585Zm10.27-5.213c.173-.388.217-.474.3-.474s.13.043.3.431c.217.474,2.253,5.429,3.033,7.281.477,1.077.867,1.293,1.127,1.336a2.188,2.188,0,0,0,.52.086c.087,0,.13,0,.13.086s-.13.086-.26.086c-.217,0-1.17,0-2.123-.043-.26,0-.39,0-.39-.086a.093.093,0,0,1,.087-.086.2.2,0,0,0,.087-.3l-1.213-2.973c0-.043-.043-.086-.13-.086l-2.9-.043c-.043,0-.13.043-.13.086l-.823,2.111a2.539,2.539,0,0,0-.217.819c0,.215.26.345.52.345h.13c.087,0,.13.043.13.086,0,.086-.087.086-.217.086-.3,0-.91-.043-1.04-.043s-.867.043-1.517,0c-.173,0-.26-.043-.26-.086s.043-.086.13-.086h.39c.607-.086.867-.517,1.127-1.12Zm1.343,4.826c.087,0,.087-.043.043-.086L50.52,249.4c-.087-.172-.13-.172-.217,0l-1.213,3.231c-.043.043,0,.086.043.086Zm8.233.991a2.284,2.284,0,0,0-.3-1.293c-.087-.172-1.863-2.844-2.3-3.49a4.515,4.515,0,0,0-.91-.9,1.418,1.418,0,0,0-.563-.172c-.087,0-.13-.043-.13-.086s.043-.086.173-.086c.26,0,1.257.043,1.343.043a9.018,9.018,0,0,1,1.127,0c.13,0,.173.043.173.086s-.087.043-.217.129a.287.287,0,0,0-.173.215.9.9,0,0,0,.173.474c.217.345,2.167,3.447,2.427,3.835.26-.517,1.993-3.1,2.253-3.49a1.026,1.026,0,0,0,.217-.6c0-.172-.043-.3-.217-.345-.13-.043-.217-.043-.217-.129,0-.043.087-.086.217-.086.347,0,.78.043.867.043s1.04-.043,1.3-.043c.087,0,.173.043.173.086s-.087.086-.173.086a1,1,0,0,0-.607.172,3.227,3.227,0,0,0-.737.6,32.64,32.64,0,0,0-2.6,3.792,2.843,2.843,0,0,0-.217,1.206v1.034c0,.172,0,.689.043,1.206.043.345.13.6.52.689a3.089,3.089,0,0,0,.607.043c.087,0,.13.043.13.086s-.087.086-.217.086c-.737,0-1.6-.043-1.647-.043a13.3,13.3,0,0,1-1.343,0c-.13,0-.217-.043-.217-.086s.043-.086.13-.086a1.205,1.205,0,0,0,.39-.043c.26-.043.39-.3.433-.646.043-.517.043-.991.043-1.206Zm10.01-5.558c.173-.388.217-.474.3-.474s.13.043.3.431c.173.474,2.253,5.429,3.033,7.281.477,1.077.867,1.249,1.127,1.336a2.188,2.188,0,0,0,.52.086c.087,0,.13,0,.13.086s-.13.086-.26.086c-.217,0-1.17,0-2.123-.043-.26,0-.39,0-.39-.086a.093.093,0,0,1,.087-.086c.087-.043.173-.129.087-.345l-1.213-2.973c-.043-.043-.087-.086-.13-.086l-2.9-.043c-.087,0-.087.043-.13.086l-.823,2.111a2.6,2.6,0,0,0-.217.776c0,.259.3.345.52.345h.13c.087,0,.13.043.13.086,0,.086-.087.086-.217.086-.3,0-.91-.043-1.04-.043s-.867.043-1.517,0c-.173,0-.26-.043-.26-.086s.043-.086.13-.086h.39c.607-.043.91-.517,1.127-1.12Zm1.343,4.826c.087,0,.087-.043.043-.086l-1.257-3.275c-.043-.172-.13-.172-.217,0l-1.213,3.231c-.043.043,0,.086.043.086Zm6.63,3.878c-.173-.086-.173-.129-.173-.474,0-.6.087-1.077.087-1.293,0-.129.043-.172.087-.172.087,0,.087.043.087.129a1.457,1.457,0,0,0,.043.431,1.786,1.786,0,0,0,1.95,1.249,1.653,1.653,0,0,0,1.907-1.465v-.086c0-.819-.39-1.293-1.517-2.2l-.607-.431c-1.43-1.077-1.733-1.81-1.69-2.628,0-1.293,1.083-2.154,2.817-2.111a6.226,6.226,0,0,1,1.257.129c.173.043.3.043.477.086.13,0,.13.043.13.086s-.043.474-.087,1.249c0,.215-.043.258-.087.258-.087,0-.087-.043-.087-.172a1.591,1.591,0,0,0-.173-.6c-.087-.129-.433-.646-1.647-.646a1.433,1.433,0,0,0-1.647,1.249v.129c0,.689.347,1.12,1.6,2.025l.39.258c1.56,1.12,1.95,1.9,1.907,2.844a2.475,2.475,0,0,1-1.17,1.982,3.742,3.742,0,0,1-2.037.474A3.268,3.268,0,0,1,77.907,256.857Zm8.84-3.619,23.27-1.81L133.2,253.8l-23.27,1.81ZM-19.767,214.375l5.59-.6,5.59.732-5.59.6ZM-126.8,250.524l23.27-1.81,23.227,2.37-23.27,1.81Zm46.93,10.814c.13-.3.173-.388.217-.388s.087.043.217.345c.173.345,1.777,4.308,2.427,5.773.39.862.693.991.91,1.077a1.342,1.342,0,0,0,.433.043c.043,0,.087,0,.087.043s-.087.086-.217.086c-.173,0-.953,0-1.69-.043-.217,0-.3,0-.3-.043s.043-.043.087-.086c.087,0,.13-.086.087-.258l-.953-2.37c0-.043-.043-.043-.087-.043h-2.3a.093.093,0,0,0-.087.086l-.65,1.68a3.574,3.574,0,0,0-.173.646c0,.172.217.259.39.259h.087c.087,0,.087,0,.087.043s-.043.086-.173.086c-.26,0-.693-.043-.823-.043H-83.51c-.13,0-.217-.043-.217-.086s.043-.043.087-.043h.3c.477-.043.693-.431.91-.862Zm1.04,3.792c.043,0,.043-.043.043-.086l-1-2.585c-.043-.129-.087-.129-.173,0L-80.91,265c-.043.043,0,.086.043.086Zm14.69-1.077c0-1.465.043-1.767,0-2.068a.487.487,0,0,0-.433-.56c-.13,0-.26-.043-.347-.043a.151.151,0,0,1-.087-.043c0-.043.043-.086.173-.086.477,0,1.127.043,1.213.043h1.43c1.04,0,2.99-.043,4.247,1.12a3.24,3.24,0,0,1,1,2.456,3.639,3.639,0,0,1-1.17,2.671,4.3,4.3,0,0,1-3.25,1.034c-.91,0-2.253-.129-2.34-.129a8.076,8.076,0,0,1-1.04,0c-.13,0-.173-.043-.173-.086s.043-.043.087-.043a.742.742,0,0,0,.3-.043c.217-.043.26-.259.3-.517.043-.388.087-1.163.087-2.068Zm.867,1.034v2.068a4.221,4.221,0,0,0,.087.732c.13.172.563.388,1.82.388a3.758,3.758,0,0,0,2.557-.862,2.974,2.974,0,0,0,.867-2.284,3.379,3.379,0,0,0-1-2.413,4.632,4.632,0,0,0-3.467-1.12,3.746,3.746,0,0,0-.693.043c-.087,0-.13.086-.13.172,0,.345-.043,1.293-.043,2.025Zm12-.862c0-1.465.043-1.767,0-2.068a.487.487,0,0,0-.433-.56,1.083,1.083,0,0,0-.347-.043.152.152,0,0,1-.087-.043c0-.043.043-.086.173-.086.477,0,1.127.043,1.213.043s2.21.043,2.427,0a1.788,1.788,0,0,0,.477-.043c.043,0,.087-.043.13-.043s.043.043.043.086c0,.086-.043.172-.087.431,0,.086-.043.517-.043.6a.093.093,0,0,1-.087.086c-.087,0-.087-.043-.087-.129a.943.943,0,0,0-.043-.345c-.087-.172-.173-.258-.737-.345-.173,0-1.343-.043-1.473-.043-.043,0-.043,0-.087.086l-.043,2.628c0,.086,0,.086.043.086h1.69a.837.837,0,0,0,.52-.129c.087-.086.13-.129.173-.129s.043,0,.043.086-.043.215-.087.517a3.5,3.5,0,0,0-.043.6c0,.086,0,.172-.087.172a.093.093,0,0,1-.087-.086h0a.73.73,0,0,0-.043-.3c-.043-.129-.13-.3-.563-.345-.3-.043-1.343-.043-1.517-.043-.043,0-.087,0-.087.043h0v.862c0,.345-.043,1.422,0,1.637.043.646.173.776,1.213.776a2.84,2.84,0,0,0,1.04-.086c.26-.086.39-.3.477-.689,0-.086.043-.129.087-.129s.043.086.043.129l-.13.9c-.087.258-.173.258-.563.258-1.6,0-2.34-.086-2.643-.086h-1.04c-.13,0-.173-.043-.173-.086s.043-.043.087-.043a.741.741,0,0,0,.3-.043c.217-.043.26-.259.3-.517.043-.689.087-1.379.087-2.068Zm8.927,4.395c-.13-.086-.173-.129-.173-.388a4.227,4.227,0,0,1,.087-.991c0-.129.043-.172.087-.172a.093.093,0,0,1,.087.086.835.835,0,0,0,.043.345,1.467,1.467,0,0,0,1.56.991,1.361,1.361,0,0,0,1.517-1.163v-.086c0-.646-.3-1.034-1.213-1.723l-.477-.345c-1.127-.819-1.387-1.422-1.343-2.068,0-1.034.867-1.723,2.21-1.68a3.955,3.955,0,0,1,1,.129,1.207,1.207,0,0,0,.39.043c.087,0,.087.043.087.086a9.869,9.869,0,0,0-.043.991c0,.172-.043.215-.087.215s-.087-.043-.087-.129a.865.865,0,0,0-.13-.474c-.043-.086-.347-.517-1.343-.517a1.137,1.137,0,0,0-1.3.991v.129c0,.56.3.862,1.257,1.637l.3.215c1.257.9,1.517,1.508,1.517,2.241a1.847,1.847,0,0,1-.91,1.551,3.389,3.389,0,0,1-1.6.388A3.415,3.415,0,0,1-42.343,268.62Zm12.263-2.456c0,.9,0,1.68.043,2.068.043.258.087.474.39.517a1.786,1.786,0,0,0,.477.043c.087,0,.087.043.087.043,0,.043-.043.086-.173.086-.607,0-1.257-.043-1.3-.043a8.076,8.076,0,0,1-1.04,0c-.13,0-.173-.043-.173-.086s0-.043.087-.043a.742.742,0,0,0,.3-.043c.217-.043.26-.258.3-.517.043-.689.087-1.379.087-2.068l.043-4.05h-1.6c-.65,0-.91.043-1.083.3a.693.693,0,0,0-.173.3c-.043.086-.087.086-.13.086s-.043-.043-.043-.086a8.352,8.352,0,0,1,.26-.991c0-.043.043-.172.087-.172.13.043.3.086.477.129a6.511,6.511,0,0,0,.823.043l3.987.043c.347,0,.607-.043.737-.043a.742.742,0,0,1,.3-.043c.043,0,.043.043.043.129,0,.3-.043.948-.043,1.034s-.043.129-.087.129-.087-.043-.087-.172v-.086c-.043-.3-.26-.517-1.3-.56l-1.343-.043Zm9.187.086c0,.9,0,1.68.043,2.068.043.258.087.474.433.517.13,0,.39.043.477.043s.087.043.087.043c0,.043-.043.086-.173.086-.607,0-1.257-.043-1.3-.043s-.737.043-1.04.043c-.13,0-.173-.043-.173-.086s.043-.043.087-.043a.646.646,0,0,0,.3-.043c.217-.043.26-.258.3-.517.043-.689.087-1.379.087-2.068v-1.68c0-1.465.043-1.766,0-2.068,0-.3-.13-.474-.347-.517a.849.849,0,0,0-.347-.043.152.152,0,0,1-.087-.043c0-.043.043-.086.173-.086.347,0,1.04.043,1.083.043a8.076,8.076,0,0,1,1.04,0c.13,0,.173,0,.173.086,0,.043-.043.043-.087.043a.648.648,0,0,0-.26.043c-.3.043-.39.215-.39.56a16.845,16.845,0,0,0-.043,2.068Zm7.237,1.551c0,.776.13,1.034.39,1.12a2.123,2.123,0,0,0,.52.043.151.151,0,0,1,.087.043c0,.043-.087.086-.173.086-.607,0-1.04-.043-1.127-.043a7.72,7.72,0,0,1-1.04,0c-.087,0-.173,0-.173-.086,0-.043.043-.043.087-.043a1.481,1.481,0,0,0,.433-.043c.26-.086.3-.345.347-1.206l.087-5.472c0-.345.043-.474.13-.474s.26.215.39.3l3.337,3.318c1.04,1.034,2.167,2.2,2.513,2.542l-.043-4.826c0-.6-.087-.819-.39-.9a2.12,2.12,0,0,0-.52-.043c-.087,0-.087-.043-.087-.086s.087-.086.217-.086c.477,0,1,.043,1.127.043h.91c.13,0,.173,0,.173.086,0,.043-.043.043-.13.043a.552.552,0,0,0-.26.043c-.347.043-.39.258-.39.862l-.087,5.6c0,.6-.043.689-.087.689-.087,0-.217-.129-.78-.6-.13-.086-1.647-1.508-2.73-2.628-1.213-1.206-2.427-2.413-2.73-2.757Zm14.6-5.472c.13-.3.173-.345.26-.345s.087.043.217.345c.173.345,1.777,4.309,2.427,5.773.39.862.693.991.91,1.077a1.344,1.344,0,0,0,.433.043c.043,0,.087,0,.087.043s-.087.086-.217.086c-.173,0-.953,0-1.69-.043-.217,0-.3,0-.3-.086,0-.043.043-.043.087-.086.087-.043.13-.086.087-.259l-.953-2.37c0-.043-.043-.043-.087-.043l-2.3-.043a.093.093,0,0,0-.087.086l-.65,1.68a3.573,3.573,0,0,0-.173.646c0,.172.217.258.39.258h.087c.087,0,.087.043.087.043,0,.043-.043.086-.173.086-.26,0-.693-.043-.823-.043a10.743,10.743,0,0,1-1.213,0c-.13,0-.217-.043-.217-.086s.043-.043.087-.043h.3c.477-.043.693-.388.91-.862Zm1.04,3.835c.043,0,.043,0,.043-.086l-1-2.585c-.043-.129-.087-.129-.173,0l-.953,2.542c0,.043,0,.086.043.086Zm9.533.517c0,.9,0,1.68.043,2.068.043.3.087.474.39.517a1.788,1.788,0,0,0,.477.043.152.152,0,0,1,.087.043c0,.043-.043.086-.173.086-.563,0-1.257-.043-1.3-.043s-.737.043-1.04.043c-.13,0-.173-.043-.173-.086s0-.043.087-.043a.646.646,0,0,0,.3-.043c.217-.043.26-.259.3-.517.043-.689.087-1.379.087-2.068l.043-4.007H9.093c-.65,0-.91.043-1.083.3a.694.694,0,0,0-.173.3c-.043.086-.087.086-.087.086a.15.15,0,0,1-.043-.086,8.355,8.355,0,0,1,.26-.991c.043-.043.043-.172.087-.172.13.043.3.086.477.129a6.511,6.511,0,0,0,.823.043l3.987.043a3.984,3.984,0,0,0,.737-.043,1.15,1.15,0,0,1,.3-.043c.043,0,.043.043.043.129,0,.3-.043.948-.043,1.034s-.043.129-.087.129-.087-.043-.087-.172v-.086c-.043-.3-.3-.517-1.3-.56l-1.343-.043Zm9.187.086a16.476,16.476,0,0,0,.043,2.068c.043.3.087.474.39.517a1.786,1.786,0,0,0,.477.043.152.152,0,0,1,.087.043c0,.043-.043.086-.173.086-.563,0-1.257-.043-1.3-.043a8.087,8.087,0,0,1-1.04,0c-.13,0-.173-.043-.173-.086s.043-.043.087-.043a.646.646,0,0,0,.3-.043c.217-.043.26-.258.3-.517.043-.388.087-1.163.087-2.068l.043-1.68v-2.068a.507.507,0,0,0-.347-.56.96.96,0,0,0-.347-.043c-.043,0-.087,0-.087-.043s.043-.086.173-.086c.347,0,1.04.043,1.083.043h1.04c.13,0,.173,0,.173.086,0,.043-.043.043-.087.043a.553.553,0,0,0-.26.043c-.3.043-.39.216-.39.517a16.84,16.84,0,0,0-.043,2.068Zm9.75-4.438c2.383.043,4.16,1.422,4.117,3.619a3.967,3.967,0,0,1-4.073,3.878h-.217a3.778,3.778,0,0,1-4.073-3.447v-.345a3.92,3.92,0,0,1,4.16-3.662C30.37,262.329,30.413,262.329,30.457,262.329Zm.13,7.109a2.921,2.921,0,0,0,2.99-3.231,3.24,3.24,0,0,0-2.9-3.533h-.3a2.935,2.935,0,0,0-3.163,2.585v.517a3.383,3.383,0,0,0,3.077,3.662Zm9.967-.948c0,.776.13,1.034.39,1.12a2.12,2.12,0,0,0,.52.043.152.152,0,0,1,.087.043c0,.043-.087.086-.217.086-.607,0-1.04-.043-1.127-.043a7.72,7.72,0,0,1-1.04,0c-.087,0-.173,0-.173-.086,0-.043.043-.043.087-.043a1.479,1.479,0,0,0,.433-.043c.26-.086.3-.345.347-1.206l.087-5.472c0-.388.043-.474.13-.474s.26.215.347.3l3.337,3.318c1.04,1.034,2.21,2.2,2.513,2.542l-.043-4.826c0-.6-.087-.819-.39-.9a2.123,2.123,0,0,0-.52-.043c-.087,0-.087-.043-.087-.086s.087-.086.217-.086c.477,0,1,.043,1.127.043a6.011,6.011,0,0,1,.91,0c.13,0,.173,0,.173.086,0,.043-.043.086-.13.086a.553.553,0,0,0-.26.043c-.347.043-.39.259-.39.819l-.087,5.6c0,.646-.043.689-.087.689-.087,0-.217-.086-.78-.6-.13-.086-1.647-1.508-2.73-2.628-1.213-1.206-2.427-2.413-2.73-2.757Zm18.98,1.422c-.13-.086-.173-.129-.173-.388a4.226,4.226,0,0,1,.087-.991c0-.086.043-.172.087-.172.087,0,.087.043.087.086a1.3,1.3,0,0,0,1.213,1.379,1.205,1.205,0,0,0,.39-.043,1.361,1.361,0,0,0,1.517-1.163v-.086c0-.646-.3-1.034-1.213-1.723l-.477-.345c-1.127-.862-1.343-1.422-1.343-2.068,0-1.034.867-1.723,2.21-1.68a7.773,7.773,0,0,1,1,.086,1.083,1.083,0,0,0,.347.043c.087,0,.13.043.13.086s-.043.388-.043,1.034c0,.172-.043.216-.087.216s-.087-.043-.087-.129a.865.865,0,0,0-.13-.474c-.043-.086-.347-.517-1.343-.517a1.137,1.137,0,0,0-1.3.948v.129c0,.56.3.862,1.257,1.594l.3.215c1.257.9,1.517,1.508,1.517,2.284a1.95,1.95,0,0,1-.91,1.551,3.39,3.39,0,0,1-1.6.388A3.837,3.837,0,0,1,59.533,269.912Zm9.967-4.179a13.325,13.325,0,0,0,0-2.068c0-.345-.087-.474-.433-.56-.13,0-.26-.043-.347-.043a.152.152,0,0,1-.087-.043c0-.043.043-.086.173-.086.477,0,1.127.043,1.213.043h1.343a2.781,2.781,0,0,1,1.993.56,1.6,1.6,0,0,1,.52,1.12,2.365,2.365,0,0,1-2.47,2.241h-.39c-.043,0-.13,0-.13-.086s.087-.086.3-.086a1.7,1.7,0,0,0,1.863-1.508v-.043a1.848,1.848,0,0,0-.563-1.465,1.97,1.97,0,0,0-1.473-.474,1.788,1.788,0,0,0-.477.043c-.087,0-.087.086-.087.172l-.043,3.921a16.476,16.476,0,0,0,.043,2.068c.043.259.087.474.39.517a2.137,2.137,0,0,0,.477.043.152.152,0,0,1,.087.043c0,.043-.043.086-.173.086-.607,0-1.257-.043-1.3-.043a7.969,7.969,0,0,1-1.04,0c-.13,0-.173-.043-.173-.086s.043-.043.087-.043a.742.742,0,0,0,.3-.043c.217-.043.26-.259.3-.517.043-.689.087-1.379.087-2.068Zm11.137-2.413c.13-.3.173-.388.26-.388s.087.043.217.345c.173.345,1.777,4.309,2.427,5.773.39.862.693.991.91,1.077a1.483,1.483,0,0,0,.433.043c.087,0,.13,0,.13.043s-.087.086-.217.086c-.173,0-.953,0-1.69-.043-.217,0-.3,0-.3-.086,0-.043.043-.043.087-.086.043,0,.13-.086.087-.258l-.953-2.37c0-.043-.043-.043-.087-.043l-2.3-.043a.093.093,0,0,0-.087.086l-.65,1.68a3.571,3.571,0,0,0-.173.646c0,.172.217.259.39.259h.13c.087,0,.087.043.087.043,0,.043-.087.086-.173.086-.26,0-.693-.043-.823-.043a10.743,10.743,0,0,1-1.213,0c-.13,0-.217-.043-.217-.086S76.953,270,77,270a.742.742,0,0,0,.3-.043c.477-.043.693-.388.91-.862Zm1.04,3.835c.043,0,.043-.043.043-.086l-1-2.585c-.043-.129-.087-.129-.173,0l-.953,2.542c0,.043,0,.086.043.086Z" transform="translate(131.3 -203.8)" fill="#fff"/>
  </g>
</svg>
