<svg id="search" xmlns="http://www.w3.org/2000/svg" width="14" height="13.999" viewBox="0 0 14 13.999">
  <path id="Path_2361" data-name="Path 2361" d="M23.093,23.092a.875.875,0,0,1,1.238,0L27.7,26.46A.875.875,0,0,1,26.463,27.7L23.095,24.33a.875.875,0,0,1,0-1.238Z" transform="translate(-13.957 -13.955)" fill-rule="evenodd"/>
  <path id="Path_2362" data-name="Path 2362" d="M5.687,10.5A4.812,4.812,0,1,0,.875,5.687,4.812,4.812,0,0,0,5.687,10.5Zm5.687-4.812A5.687,5.687,0,1,1,5.687,0a5.687,5.687,0,0,1,5.687,5.687Z" fill-rule="evenodd"/>
</svg>
