<svg id="calendar-line-icon" xmlns="http://www.w3.org/2000/svg" width="20" height="20.002" viewBox="0 0 20 20.002">
  <path id="Path_70" data-name="Path 70" d="M13.283.77A.867.867,0,0,1,14.222,0a.867.867,0,0,1,.939.77V4.142a.867.867,0,0,1-.939.77.867.867,0,0,1-.939-.77V.77ZM10.76,16.9c-.055,0-.1-.233-.1-.521s.044-.521.1-.521h2.57c.055,0,.1.233.1.521s-.044.521-.1.521ZM2.58,10.92c-.055,0-.1-.233-.1-.521s.044-.521.1-.521H5.15c.055,0,.1.233.1.521s-.044.521-.1.521Zm4.09,0c-.055,0-.1-.233-.1-.521s.044-.521.1-.521H9.24c.055,0,.1.233.1.521s-.044.521-.1.521Zm4.09,0c-.055,0-.1-.233-.1-.521s.044-.521.1-.521h2.57c.055,0,.1.233.1.521s-.044.521-.1.521Zm4.092,0c-.055,0-.1-.233-.1-.521s.044-.521.1-.521h2.57c.055,0,.1.233.1.521s-.044.521-.1.521ZM2.58,13.908c-.055,0-.1-.233-.1-.521s.044-.521.1-.521H5.15c.055,0,.1.233.1.521s-.044.521-.1.521Zm4.09,0c-.055,0-.1-.233-.1-.521s.044-.521.1-.521H9.24c.055,0,.1.233.1.521s-.044.521-.1.521Zm4.09,0c-.055,0-.1-.233-.1-.521s.044-.521.1-.521h2.57c.055,0,.1.233.1.521s-.044.521-.1.521Zm4.092,0c-.055,0-.1-.233-.1-.521s.044-.521.1-.521h2.57c.055,0,.1.233.1.521s-.044.521-.1.521ZM2.58,16.9c-.055,0-.1-.233-.1-.521s.044-.521.1-.521H5.15c.055,0,.1.233.1.521s-.044.521-.1.521Zm4.09,0c-.055,0-.1-.233-.1-.521s.044-.521.1-.521H9.24c.055,0,.1.233.1.521s-.044.521-.1.521ZM4.819.77A.867.867,0,0,1,5.758,0,.867.867,0,0,1,6.7.77V4.142a.867.867,0,0,1-.939.77.867.867,0,0,1-.939-.77V.77ZM1.042,7.376H18.957V3.494a.481.481,0,0,0-.14-.337.475.475,0,0,0-.337-.14H16.764a.521.521,0,0,1,0-1.042h1.717A1.523,1.523,0,0,1,20,3.494V18.483A1.523,1.523,0,0,1,18.481,20H1.519A1.523,1.523,0,0,1,0,18.481V3.494A1.523,1.523,0,0,1,1.519,1.976H3.353a.521.521,0,1,1,0,1.042H1.519a.481.481,0,0,0-.337.14.475.475,0,0,0-.14.337V7.376ZM18.958,8.42H1.042V18.481a.481.481,0,0,0,.14.337.475.475,0,0,0,.337.14H18.481a.481.481,0,0,0,.337-.14.475.475,0,0,0,.14-.337V8.42Zm-10.75-5.4a.521.521,0,1,1,0-1.042h3.5a.521.521,0,0,1,0,1.042Z"/>
</svg>
