<svg xmlns="http://www.w3.org/2000/svg" width="20" height="19.999" viewBox="0 0 20 19.999">
  <path id="database_-_Outline" data-name="database - Outline" d="M9.4,19.374h0a34.608,34.608,0,0,1-4.9-.324,14.715,14.715,0,0,1-3.6-.9c-1.007-.433-1.5-.933-1.5-1.526V14.207a1.088,1.088,0,0,1,.155-.52l.167-.306.3.179a11.291,11.291,0,0,0,3.7,1.089,35.409,35.409,0,0,0,5.675.43H9.4a35.237,35.237,0,0,0,5.667-.43,11.326,11.326,0,0,0,3.7-1.089l.3-.178.167.306a1.088,1.088,0,0,1,.155.52v2.416c0,.593-.489,1.092-1.5,1.526a14.715,14.715,0,0,1-3.6.9A34.608,34.608,0,0,1,9.4,19.374ZM.068,14.347v2.275c0,.284.387.607,1.09.909a14.076,14.076,0,0,0,3.435.854,33.937,33.937,0,0,0,4.8.317h0a33.937,33.937,0,0,0,4.8-.317,14.076,14.076,0,0,0,3.435-.854c.7-.3,1.09-.625,1.09-.909V14.347a13.609,13.609,0,0,1-3.545.965,35.907,35.907,0,0,1-5.775.439H9.4a36.08,36.08,0,0,1-5.783-.439A13.569,13.569,0,0,1,.068,14.347Zm9.337.2H9.4a34.609,34.609,0,0,1-4.9-.324,14.7,14.7,0,0,1-3.605-.9c-1.007-.434-1.5-.933-1.5-1.526V9.374a1.088,1.088,0,0,1,.155-.52l.167-.306.3.179a11.291,11.291,0,0,0,3.7,1.089,35.409,35.409,0,0,0,5.675.43H9.4a35.237,35.237,0,0,0,5.667-.43,11.326,11.326,0,0,0,3.7-1.089l.3-.178.167.306a1.088,1.088,0,0,1,.155.52v2.416c0,.593-.489,1.092-1.5,1.526a14.73,14.73,0,0,1-3.605.9A34.5,34.5,0,0,1,9.4,14.543ZM.068,9.515v2.276c0,.283.387.606,1.09.909a14.057,14.057,0,0,0,3.435.854,33.937,33.937,0,0,0,4.8.317H9.4a33.824,33.824,0,0,0,4.794-.317,14.09,14.09,0,0,0,3.436-.854c.7-.3,1.09-.625,1.09-.909V9.515a13.609,13.609,0,0,1-3.545.965,35.908,35.908,0,0,1-5.775.439H9.4a36.08,36.08,0,0,1-5.783-.439A13.569,13.569,0,0,1,.068,9.515Zm9.328.2a34.608,34.608,0,0,1-4.9-.324,14.7,14.7,0,0,1-3.605-.9C-.115,8.051-.6,7.552-.6,6.959V4.543a1.088,1.088,0,0,1,.155-.52l.167-.306.3.179a11.291,11.291,0,0,0,3.7,1.089,35.41,35.41,0,0,0,5.675.43H9.4a35.237,35.237,0,0,0,5.667-.43,11.326,11.326,0,0,0,3.7-1.089l.3-.178.167.306a1.088,1.088,0,0,1,.155.52V6.959c0,.593-.489,1.092-1.5,1.526a14.717,14.717,0,0,1-3.605.9,34.416,34.416,0,0,1-4.759.324H9.4ZM.068,4.683V6.959c0,.283.387.606,1.09.909a14.057,14.057,0,0,0,3.435.854,33.735,33.735,0,0,0,4.664.317H9.4a33.943,33.943,0,0,0,4.8-.317,14.077,14.077,0,0,0,3.436-.854c.7-.3,1.09-.625,1.09-.909V4.683a13.609,13.609,0,0,1-3.545.965A35.908,35.908,0,0,1,9.4,6.087H9.4a36.081,36.081,0,0,1-5.783-.439A13.569,13.569,0,0,1,.068,4.683Zm9.328.2a34.608,34.608,0,0,1-4.9-.324,14.7,14.7,0,0,1-3.605-.9C-.115,3.219-.6,2.72-.6,2.127S-.115,1.035.892.6A14.7,14.7,0,0,1,4.5-.3,34.608,34.608,0,0,1,9.4-.625a34.608,34.608,0,0,1,4.9.324,14.715,14.715,0,0,1,3.6.9c1.007.433,1.5.933,1.5,1.526s-.489,1.092-1.5,1.526a14.715,14.715,0,0,1-3.6.9,34.122,34.122,0,0,1-4.563.323H9.4Zm-.3-.673h.3a33.937,33.937,0,0,0,4.8-.317,14.076,14.076,0,0,0,3.435-.854c.7-.3,1.09-.625,1.09-.909s-.387-.606-1.09-.909A14.076,14.076,0,0,0,14.2.364,33.937,33.937,0,0,0,9.4.047a33.937,33.937,0,0,0-4.8.317,14.057,14.057,0,0,0-3.435.854c-.7.3-1.09.626-1.09.909s.387.606,1.09.909a14.057,14.057,0,0,0,3.435.854A33.5,33.5,0,0,0,9.1,4.206Z" transform="translate(0.604 0.625)" fill="#74613c"/>
</svg>
