<svg xmlns="http://www.w3.org/2000/svg" width="13.357" height="18.5" viewBox="0 0 13.357 18.5">
  <g id="user" transform="translate(-6.5 -2)">
    <path id="Union_3" data-name="Union 3" d="M-1750.25-1242a4.755,4.755,0,0,1,4.75-4.75,4.755,4.755,0,0,1,4.749,4.75,4.755,4.755,0,0,1-4.749,4.75A4.755,4.755,0,0,1-1750.25-1242Zm1.786,0a2.968,2.968,0,0,0,2.965,2.965,2.968,2.968,0,0,0,2.964-2.965,2.968,2.968,0,0,0-2.964-2.965A2.968,2.968,0,0,0-1748.464-1242Z" transform="translate(1758.679 1248.75)" fill="#74613c"/>
    <path id="Union_2" data-name="Union 2" d="M-1738.428-1238.536a.25.25,0,0,1-.25-.25V-1242a2.968,2.968,0,0,0-2.965-2.965h-3.856a2.968,2.968,0,0,0-2.965,2.965v3.214a.25.25,0,0,1-.25.25H-1750a.25.25,0,0,1-.25-.25V-1242a4.755,4.755,0,0,1,4.75-4.75h3.856a4.755,4.755,0,0,1,4.75,4.75v3.214a.25.25,0,0,1-.25.25Z" transform="translate(1756.75 1259.036)" fill="#74613c"/>
  </g>
</svg>
