<svg xmlns="http://www.w3.org/2000/svg" width="18" height="18" viewBox="0 0 18 18">
  <path id="add-image" d="M24,4.342V6.237H21.158V9.079H19.263V6.237H16.421V4.342h2.842V1.5h1.895V4.342Zm-8.053,6.632a1.422,1.422,0,1,0-1.422-1.421,1.422,1.422,0,0,0,1.422,1.421Zm3.316,3.064-.486-.54a1.895,1.895,0,0,0-2.819,0l-.621.692-4.6-5.11L7.895,12.237v-6h6.632V4.342H7.895A1.9,1.9,0,0,0,6,6.237V17.605A1.9,1.9,0,0,0,7.895,19.5H19.263a1.9,1.9,0,0,0,1.895-1.895V10.974H19.263Z" transform="translate(-6 -1.5)" fill="#fff"/>
</svg>
